<svg width="199" height="116" viewBox="0 0 199 116" fill="none" xmlns="http://www.w3.org/2000/svg">
<path d="M57.1887 46.1173H34.3268V20.5576H57.1887V46.1173ZM34.3268 92.2309H11.4648V46.1173H34.3268V92.2309Z" fill="#00FF00"/>
<path d="M0.5625 0H90.958V23.0588H0.5625V0ZM57.1912 115.29H34.3293V92.2311H57.1912V115.29Z" fill="#00FF00"/>
<path d="M57.9052 61.5875L57.8162 85.5163L50.5979 85.489L50.6868 61.5602L42.2461 61.529L42.2654 55.3136L66.3691 55.4034L66.3459 61.6187L57.9052 61.5875ZM82.2603 85.606L82.3028 74.1118C82.3028 73.5148 82.2641 72.9491 82.179 72.4068C82.0978 71.8683 81.9392 71.3923 81.6993 70.9788C81.4634 70.5691 81.1462 70.2413 80.7555 69.9955C80.3609 69.7536 79.8541 69.6327 79.2352 69.6288C78.0244 69.6249 77.096 70.0541 76.4461 70.9163C75.7924 71.7825 75.4674 72.8515 75.4636 74.1274L75.421 85.5826L68.4967 85.5553L68.6166 53.3667L75.5371 53.394L75.4868 67.0615H75.5719C76.0554 66.2109 76.8175 65.454 77.8619 64.7907C78.9025 64.1275 80.1559 63.7997 81.622 63.8036C83.0571 63.8114 84.2563 64.0689 85.2273 64.5839C86.1982 65.099 86.9796 65.7622 87.5831 66.5738C88.1866 67.3853 88.6198 68.3178 88.8829 69.3674C89.1459 70.4169 89.2774 71.4704 89.2736 72.5199L89.2233 85.6334L82.2603 85.606ZM94.5423 85.6529L94.6196 64.4513L101.544 64.4747L101.467 85.6802L94.5423 85.6529ZM102.074 57.7092C102.074 58.2477 101.966 58.751 101.753 59.2192C101.54 59.6874 101.258 60.0892 100.906 60.4287C100.55 60.7681 100.128 61.0373 99.633 61.2324C99.1417 61.4314 98.6272 61.5251 98.0934 61.5251C96.9677 61.5212 96.0238 61.1427 95.2695 60.3858C94.5113 59.6328 94.1361 58.7276 94.1399 57.678C94.1399 57.1669 94.2405 56.6792 94.4378 56.211C94.639 55.7428 94.9213 55.3409 95.2888 55.0015C95.6563 54.662 96.078 54.385 96.5577 54.1743C97.0373 53.9637 97.5596 53.8583 98.1205 53.8622C98.6543 53.8622 99.1688 53.9637 99.6601 54.1626C100.151 54.3655 100.573 54.6386 100.925 54.9781C101.273 55.3214 101.556 55.7272 101.764 56.1954C101.973 56.6636 102.078 57.1708 102.074 57.7092ZM120.754 85.7504L120.797 74.1703C120.801 73.5734 120.754 73.0076 120.657 72.4653C120.561 71.9269 120.402 71.4509 120.178 71.0373C119.953 70.6276 119.636 70.2999 119.23 70.0541C118.824 69.8122 118.309 69.6873 117.69 69.6873C117.071 69.6834 116.53 69.8044 116.066 70.0424C115.598 70.2843 115.211 70.6159 114.901 71.0412C114.588 71.4626 114.356 71.9542 114.197 72.5043C114.043 73.0583 113.961 73.6319 113.961 74.2288L113.919 85.727L106.952 85.6997L107.029 64.4981L113.741 64.5215L113.733 67.4595H113.814C114.07 67.0069 114.402 66.5621 114.812 66.1212C115.222 65.6842 115.702 65.3097 116.251 64.9975C116.801 64.6893 117.4 64.4357 118.05 64.2367C118.696 64.0416 119.385 63.9441 120.12 63.948C121.524 63.9558 122.719 64.2133 123.706 64.7283C124.688 65.2433 125.477 65.9066 126.081 66.7182C126.684 67.5297 127.118 68.4583 127.381 69.5117C127.644 70.5613 127.771 71.6147 127.767 72.6643L127.721 85.7777L120.754 85.7504ZM155.538 85.8792L146.97 85.8479L140.127 75.649L139.999 75.6451L139.964 85.8206L132.997 85.7972L133.117 53.6086L140.08 53.6359L140.011 73.2183L140.135 73.2222L146.881 64.6425L155.279 64.6776L147.14 74.2249L155.538 85.8792ZM171.84 72.914C171.843 71.8059 171.503 70.8539 170.814 70.0541C170.126 69.2581 169.097 68.8563 167.716 68.8524C167.043 68.8485 166.424 68.9538 165.859 69.1645C165.294 69.3752 164.803 69.6639 164.377 70.0307C163.956 70.4013 163.615 70.8305 163.36 71.326C163.105 71.8215 162.962 72.3404 162.931 72.8789L171.84 72.914ZM178.203 75.6178C178.203 75.9026 178.199 76.1875 178.199 76.4723C178.199 76.7532 178.184 77.0224 178.157 77.2799L162.915 77.2214C162.969 77.8183 163.143 78.3568 163.437 78.8406C163.731 79.3244 164.111 79.7458 164.575 80.1008C165.035 80.4598 165.557 80.7368 166.134 80.9397C166.71 81.1387 167.306 81.2401 167.925 81.244C169.023 81.2479 169.952 81.045 170.714 80.6353C171.476 80.2296 172.095 79.6989 172.578 79.0474L177.379 82.1297C176.385 83.5733 175.081 84.6853 173.46 85.4578C171.84 86.2303 169.96 86.6166 167.82 86.6088C166.246 86.601 164.753 86.3474 163.349 85.844C161.944 85.3446 160.714 84.615 159.662 83.6591C158.61 82.7071 157.786 81.5327 157.186 80.1398C156.587 78.7469 156.289 77.1551 156.297 75.3681C156.3 73.6358 156.602 72.0673 157.198 70.6666C157.797 69.262 158.602 68.072 159.619 67.0966C160.633 66.1212 161.832 65.3682 163.217 64.8337C164.594 64.2991 166.087 64.0338 167.693 64.0416C169.24 64.0455 170.66 64.3147 171.952 64.8454C173.244 65.376 174.354 66.1368 175.278 67.1356C176.203 68.1305 176.923 69.3401 177.441 70.7603C177.955 72.1844 178.211 73.8036 178.203 75.6178ZM196.164 70.5769C195.854 70.491 195.552 70.4325 195.255 70.4013C194.961 70.374 194.671 70.3584 194.392 70.3584C193.464 70.3545 192.678 70.5223 192.048 70.8578C191.409 71.1972 190.903 71.603 190.524 72.0829C190.141 72.5628 189.862 73.0856 189.692 73.6514C189.522 74.2171 189.437 74.7126 189.433 75.1379L189.394 86.0079L182.47 85.9806L182.547 64.8024L189.22 64.8298L189.208 67.8925H189.29C189.831 66.8118 190.593 65.9261 191.58 65.2433C192.566 64.5644 193.707 64.2211 195.003 64.2289C195.286 64.2289 195.56 64.2445 195.827 64.2757C196.094 64.303 196.311 64.3459 196.481 64.4045L196.164 70.5769ZM116.445 100.756C116.05 100.245 115.52 99.8315 114.843 99.5154C114.17 99.2033 113.482 99.0433 112.778 99.0394C112.047 99.0355 111.385 99.1838 110.793 99.4803C110.201 99.7768 109.691 100.171 109.269 100.666C108.844 101.162 108.511 101.735 108.271 102.387C108.027 103.039 107.907 103.733 107.904 104.471C107.9 105.212 108.012 105.906 108.232 106.562C108.457 107.213 108.785 107.791 109.219 108.29C109.652 108.786 110.174 109.18 110.778 109.465C111.381 109.753 112.062 109.894 112.824 109.898C113.524 109.902 114.224 109.769 114.913 109.5C115.605 109.234 116.162 108.844 116.584 108.337L120.41 113.078C119.536 113.924 118.406 114.588 117.025 115.064C115.644 115.543 114.178 115.778 112.631 115.774C110.971 115.766 109.424 115.504 107.985 114.989C106.55 114.47 105.3 113.721 104.244 112.742C103.184 111.759 102.352 110.569 101.749 109.176C101.146 107.783 100.848 106.207 100.855 104.447C100.859 102.715 101.169 101.154 101.784 99.7651C102.399 98.3762 103.238 97.194 104.302 96.2224C105.366 95.2431 106.623 94.4979 108.062 93.979C109.501 93.4562 111.041 93.2026 112.673 93.2065C113.431 93.2104 114.186 93.2845 114.928 93.4289C115.675 93.5732 116.391 93.7683 117.079 94.0102C117.768 94.256 118.402 94.5564 118.979 94.9115C119.551 95.2704 120.05 95.6606 120.472 96.0898L116.445 100.756ZM135.547 105.938L134.661 105.934C133.899 105.934 133.133 105.965 132.359 106.031C131.586 106.101 130.897 106.234 130.29 106.429C129.682 106.624 129.183 106.913 128.789 107.295C128.394 107.678 128.193 108.181 128.193 108.805C128.189 109.203 128.278 109.547 128.464 109.827C128.646 110.112 128.878 110.343 129.156 110.514C129.439 110.682 129.76 110.807 130.127 110.877C130.491 110.951 130.843 110.986 131.183 110.99C132.587 110.994 133.667 110.608 134.413 109.827C135.164 109.051 135.539 107.998 135.543 106.663L135.547 105.938ZM122.874 96.8233C124.116 95.6333 125.563 94.7476 127.21 94.1546C128.858 93.5654 130.541 93.2728 132.259 93.2806C134.034 93.2884 135.531 93.5108 136.754 93.9556C137.976 94.4043 138.962 95.0871 139.721 96.0117C140.479 96.9364 141.028 98.103 141.376 99.5076C141.721 100.916 141.891 102.582 141.883 104.513L141.844 115.2L135.516 115.177L135.523 112.922H135.396C134.858 113.799 134.046 114.474 132.959 114.954C131.876 115.434 130.7 115.668 129.435 115.664C128.588 115.66 127.717 115.543 126.816 115.313C125.918 115.083 125.094 114.712 124.352 114.197C123.609 113.686 122.998 113.003 122.522 112.149C122.046 111.295 121.814 110.245 121.818 108.993C121.822 107.463 122.243 106.23 123.075 105.294C123.907 104.361 124.982 103.643 126.294 103.136C127.601 102.629 129.059 102.293 130.665 102.13C132.27 101.966 133.833 101.888 135.353 101.892V101.552C135.357 100.503 134.994 99.7261 134.262 99.2267C133.535 98.7273 132.634 98.4776 131.566 98.4698C130.58 98.4698 129.628 98.6766 128.711 99.1019C127.798 99.5232 127.013 100.03 126.363 100.624L122.874 96.8233ZM160.687 99.8159C160.378 99.73 160.076 99.6715 159.782 99.6403C159.484 99.613 159.194 99.5974 158.915 99.5974C157.987 99.5935 157.206 99.7612 156.571 100.097C155.937 100.436 155.426 100.842 155.047 101.322C154.664 101.802 154.389 102.325 154.219 102.89C154.045 103.456 153.96 103.952 153.956 104.377L153.917 115.247L146.997 115.22L147.074 94.0414L153.743 94.0687L153.732 97.1315H153.817C154.355 96.0508 155.117 95.1651 156.107 94.4823C157.093 93.8034 158.235 93.4601 159.527 93.4679C159.809 93.4679 160.084 93.4835 160.351 93.5147C160.617 93.542 160.838 93.5849 161.004 93.6434L160.687 99.8159ZM177.48 102.305C177.483 101.197 177.143 100.245 176.454 99.4491C175.77 98.6532 174.737 98.2513 173.356 98.2435C172.683 98.2435 172.064 98.3449 171.499 98.5595C170.934 98.7702 170.443 99.0589 170.018 99.4257C169.596 99.7924 169.255 100.226 169 100.717C168.745 101.217 168.602 101.732 168.571 102.274L177.48 102.305ZM183.843 105.013C183.843 105.294 183.839 105.579 183.839 105.863C183.839 106.148 183.824 106.417 183.797 106.671L168.555 106.616C168.609 107.209 168.784 107.752 169.078 108.236C169.372 108.719 169.751 109.141 170.211 109.496C170.675 109.851 171.197 110.132 171.774 110.331C172.346 110.53 172.946 110.635 173.565 110.635C174.663 110.639 175.592 110.436 176.354 110.026C177.116 109.621 177.735 109.09 178.215 108.439L183.015 111.521C182.025 112.968 180.721 114.076 179.1 114.849C177.48 115.625 175.6 116.008 173.46 116C171.886 115.996 170.393 115.739 168.989 115.239C167.584 114.736 166.354 114.01 165.302 113.054C164.25 112.098 163.426 110.924 162.826 109.531C162.223 108.138 161.929 106.546 161.937 104.759C161.94 103.027 162.242 101.458 162.838 100.058C163.437 98.6532 164.242 97.4671 165.259 96.4917C166.277 95.5162 167.476 94.7593 168.853 94.2248C170.234 93.6942 171.727 93.4289 173.333 93.4328C174.88 93.4406 176.3 93.7059 177.592 94.2365C178.884 94.7671 179.994 95.5318 180.919 96.5268C181.843 97.5256 182.563 98.7351 183.081 100.155C183.595 101.576 183.851 103.195 183.843 105.013Z" fill="white"/>
<path d="M198.166 115.29H189.641V106.687H198.166V115.29Z" fill="#00FF00"/>
</svg>
