<svg width="432" height="122" viewBox="0 0 432 122" fill="none" xmlns="http://www.w3.org/2000/svg">
<path d="M30.9 24.4902C30.9 28.5802 31.88 31.3598 33.84 32.8398C35.8 34.3198 38.75 35.0596 42.67 35.0596H48.32V50.2002H30.89V72.7998C30.89 77.4498 32.73 79.7695 36.42 79.7695H48.32V96.8398H29.81C24.2 96.8398 19.95 95.0798 17.07 91.5498C14.19 88.0298 12.74 83.26 12.74 77.25V50.2002H0V35.0596H37.62C33.37 35.0596 29.69 34.9598 26.56 34.7598C23.44 34.5598 20.83 33.9198 18.75 32.8398C16.67 31.7598 15.12 30.0595 14.12 27.7295C13.12 25.4095 12.62 22.1201 12.62 17.8701V9.94043H30.89V24.4795L30.9 24.4902Z" fill="#1D1D1B"/>
<path d="M55.0312 60.3301C55.0312 48.9001 58.2812 40.4803 64.7912 35.0703C71.2912 29.6603 80.4012 26.96 92.1212 26.96C97.8912 26.96 103.041 27.6001 107.561 28.8701C112.081 30.1501 115.901 32.1196 119.001 34.8096C122.101 37.4896 124.471 40.9402 126.111 45.1602C127.751 49.3802 128.571 54.4401 128.571 60.3301C128.571 71.4101 125.341 79.7004 118.881 85.1904C112.421 90.6904 103.501 93.4297 92.1312 93.4297C86.7012 93.4297 81.7312 92.7496 77.2012 91.3896C72.6812 90.0296 68.7813 87.9604 65.5013 85.1904C62.2213 82.4204 59.6612 78.9698 57.8112 74.8398C55.9612 70.7098 55.0312 65.8701 55.0312 60.3301ZM74.2812 60.2002C74.2812 66.0902 75.8112 70.2003 78.8712 72.5303C81.9312 74.8603 86.3412 76.0303 92.1212 76.0303C97.5512 76.0303 101.771 74.6704 104.781 71.9404C107.791 69.2204 109.301 65.3002 109.301 60.2002C109.301 55.1002 107.791 50.9896 104.781 48.3896C101.761 45.7996 97.5412 44.5 92.1212 44.5C86.7012 44.5 82.2512 45.8598 79.0712 48.5898C75.8812 51.3198 74.2912 55.1902 74.2912 60.2002H74.2812Z" fill="#1D1D1B"/>
<path d="M184.512 27.0098H202.992V93.4297H184.512V66.0303C184.512 71.4603 183.632 75.9397 181.862 79.4697C180.092 82.9997 177.982 85.8001 175.532 87.8701C173.072 89.9401 170.532 91.3802 167.912 92.2002C165.282 93.0202 163.062 93.4297 161.252 93.4297C159.182 93.4297 156.662 93.1704 153.692 92.6504C150.722 92.1304 147.832 90.9496 145.032 89.0996C142.232 87.2496 139.862 84.53 137.922 80.96C135.982 77.39 135.012 72.5798 135.012 66.5498V27.0098H153.492V63.71C153.492 65.69 153.922 67.4803 154.782 69.0703C155.642 70.6703 156.782 72.0196 158.202 73.1396C159.622 74.2596 161.192 75.1197 162.922 75.7197C164.642 76.3197 166.362 76.6201 168.092 76.6201C169.982 76.6201 171.902 76.2798 173.842 75.5898C175.782 74.8998 177.542 73.9696 179.142 72.8096C180.732 71.6496 182.032 70.2902 183.022 68.7402C184.012 67.1902 184.512 65.5102 184.512 63.7002V27V27.0098Z" fill="#1D1D1B"/>
<path d="M209.451 60.0996C209.451 54.8496 210.441 50.1701 212.421 46.0801C214.401 41.9901 217.071 38.5197 220.431 35.6797C223.791 32.8397 227.731 30.6797 232.251 29.2197C236.771 27.7597 241.571 27.0195 246.661 27.0195C250.881 27.0195 255.211 27.4904 259.651 28.4404C264.091 29.3904 268.131 30.9398 271.801 33.0898C275.461 35.2398 278.481 38.0004 280.851 41.3604C283.221 44.7204 284.451 48.8096 284.531 53.6396H264.631C264.281 51.9996 263.511 50.6004 262.301 49.4404C261.091 48.2804 259.671 47.3103 258.041 46.5303C256.401 45.7503 254.681 45.1996 252.871 44.8496C251.061 44.5096 249.291 44.3301 247.571 44.3301C244.291 44.3301 241.471 44.7601 239.111 45.6201C236.741 46.4801 234.781 47.62 233.231 49.04C231.681 50.46 230.541 52.1401 229.811 54.0801C229.081 56.0201 228.711 58.0198 228.711 60.0898C228.711 62.1598 229.051 64.1596 229.741 66.0996C230.431 68.0396 231.531 69.7402 233.041 71.2002C234.551 72.6702 236.481 73.8304 238.861 74.6904C241.231 75.5504 244.051 75.9795 247.321 75.9795C249.041 75.9795 250.831 75.81 252.681 75.46C254.531 75.12 256.281 74.5798 257.911 73.8398C259.551 73.1098 260.971 72.16 262.171 71C263.381 69.84 264.191 68.4398 264.631 66.7998H284.531C284.441 71.7098 283.191 75.8695 280.781 79.2695C278.371 82.6695 275.331 85.43 271.671 87.54C268.011 89.65 264.021 91.1596 259.721 92.0596C255.411 92.9596 251.281 93.4199 247.311 93.4199C241.971 93.4199 236.991 92.71 232.381 91.29C227.771 89.87 223.761 87.76 220.361 84.96C216.961 82.16 214.291 78.6702 212.351 74.4902C210.411 70.3102 209.441 65.5101 209.441 60.0801L209.451 60.0996Z" fill="#1D1D1B"/>
<path d="M307.402 93.4404H287.762V0H307.402V57.9697C307.402 53.0597 308.092 48.6896 309.472 44.8496C310.852 41.0196 312.662 37.7902 314.902 35.1602C317.142 32.5302 319.662 30.5304 322.462 29.1504C325.262 27.7704 328.122 27.0801 331.052 27.0801C335.362 27.0801 339.192 27.8103 342.552 29.2803C345.912 30.7503 348.752 32.8298 351.082 35.5498C353.412 38.2598 355.172 41.5196 356.382 45.3096C357.592 49.0996 358.192 53.2796 358.192 57.8496V93.4404H338.552V58.1104C338.552 56.3004 338.202 54.5396 337.522 52.8096C336.832 51.0896 335.862 49.5402 334.612 48.1602C333.362 46.7802 331.922 45.6598 330.282 44.7998C328.642 43.9398 326.882 43.5098 324.982 43.5098C322.402 43.5098 320.022 43.8999 317.872 44.6699C315.722 45.4499 313.862 46.4998 312.312 47.8398C310.762 49.1798 309.552 50.7302 308.692 52.4902C307.832 54.2602 307.402 56.0895 307.402 57.9795V93.4404Z" fill="#1D1D1B"/>
<path d="M422.609 63.21C416.359 57.57 407.679 54.75 396.569 54.75C385.459 54.75 377.159 57.49 371.179 62.96C365.189 68.43 362.199 76.8497 362.199 88.2197C362.199 93.5597 363.019 98.2997 364.659 102.43C366.299 106.57 368.619 110.03 371.639 112.83C374.649 115.63 378.319 117.759 382.619 119.229C386.929 120.689 391.749 121.43 397.089 121.43V105.66C395.029 105.64 392.999 105.39 391.019 104.89C388.949 104.37 387.099 103.62 385.459 102.63C383.819 101.64 382.509 100.37 381.519 98.8203C380.529 97.2703 380.029 95.4596 380.029 93.3896L431.979 93.2598V88.3496C431.979 77.2396 428.859 68.8597 422.609 63.2197V63.21ZM380.029 81.6201C380.029 79.7301 380.519 78.0696 381.519 76.6396C382.509 75.2196 383.819 74.0604 385.459 73.1504C387.099 72.2504 388.899 71.5804 390.889 71.1504C392.869 70.7204 394.809 70.5 396.709 70.5C398.429 70.5 400.259 70.74 402.199 71.21C404.139 71.68 405.929 72.3998 407.559 73.3398C409.199 74.2898 410.529 75.4696 411.569 76.8896C412.599 78.3096 413.119 79.9701 413.119 81.8701L380.039 81.6104L380.029 81.6201Z" fill="#1D1D1B"/>
<path d="M384.92 47.8604L392.3 27.0195H416.72L398.96 47.8604H384.91H384.92Z" fill="#1D1D1B"/>
</svg>
