<svg width="243" height="180" viewBox="0 0 243 180" fill="none" xmlns="http://www.w3.org/2000/svg">
<g clip-path="url(#clip0_26_81)">
<path d="M16.7061 93.2965L0 89.8119L30.5294 5.64062C34.4687 6.79021 38.2648 8.20923 42.1861 8.98161C46.1075 9.75399 47.719 11.9813 49.1336 15.484C56.8152 34.7754 64.7833 53.8873 72.6798 73.1608C75.1866 79.25 77.7292 85.3393 80.236 91.4464C80.3972 91.8416 80.4688 92.2727 80.7016 93.063C77.5606 92.2079 74.3744 91.5303 71.1578 91.0333C67.0036 90.6202 65.1772 88.3928 63.7806 84.6208C56.8689 65.94 49.6708 47.385 42.5443 28.7401C42.2469 28.2073 41.8861 27.7128 41.4699 27.2672C41.0298 27.6738 40.6553 28.1465 40.3597 28.6683C34.9402 43.5291 29.5267 58.3839 24.1192 73.2327C21.7019 79.8608 19.2309 86.4529 16.7061 93.2965Z" fill="black"/>
<path d="M210.77 93.4039C205.899 92.3082 201.351 91.3203 196.821 90.1886C196.373 90.0809 195.908 89.1648 195.854 88.59C195.711 87.1171 195.854 85.6262 195.854 84.1354L195.299 83.7941C194.493 84.4228 193.634 85.0155 192.882 85.6981C189.508 89.0907 185.368 91.617 180.813 93.0626C179.363 93.5253 177.824 93.6346 176.323 93.3816C174.822 93.1286 173.403 92.5205 172.183 91.6077C168.064 88.5182 164.018 85.3388 160.15 81.944C157.524 79.6225 155.126 77.0542 152.988 74.2741C151.883 72.7644 151.258 70.9549 151.197 69.083C150.911 56.8866 150.857 44.6902 150.731 32.4938C150.731 31.7394 150.731 30.967 150.839 29.9072C154.814 30.7694 158.538 31.5418 162.263 32.404C165.701 33.1943 165.683 33.2482 165.683 36.8407C165.683 47.8695 165.683 58.8804 165.683 69.9092C165.683 72.6575 165.88 75.4057 166.095 78.136C166.345 81.3512 170.249 83.5246 174.134 82.5547C177.894 81.6551 181.36 79.7993 184.197 77.166C188.62 73.1784 192.828 68.9393 195.12 63.2452C195.556 62.2393 195.805 61.1618 195.854 60.0659C195.854 50.8692 195.854 41.6905 195.854 32.4938C195.854 31.7394 195.854 30.967 195.979 29.9432C199.972 30.8233 203.715 31.5957 207.421 32.4579C210.841 33.2482 210.823 33.2841 210.823 36.9125V93.4039H210.77Z" fill="black"/>
<path d="M100.917 64.4843L120.954 38.5647L120.596 38.0258C119.861 38.0258 119.127 37.8462 118.375 37.8462C108.957 37.8462 99.5204 37.7564 90.0841 37.8462C89.2651 37.9988 88.4193 37.8199 87.7315 37.3486C87.0436 36.8774 86.5697 36.1522 86.4134 35.3315C85.7562 33.4029 85.0032 31.5085 84.1572 29.6554C85.0525 29.6554 85.7329 29.5117 86.4134 29.5117C101.86 29.5117 117.313 29.5117 132.772 29.5117C134.186 29.5117 135.046 29.7991 135.511 31.3079C136.149 33.1502 136.902 34.9501 137.767 36.6966C138.019 37.1841 138.109 37.7392 138.026 38.2817C137.942 38.8242 137.688 39.3259 137.302 39.7143C130.76 47.965 124.26 56.2156 117.802 64.4663C116.424 66.2625 116.638 66.4242 118.715 67.484C124.589 70.4478 130.605 73.214 136.192 76.6627C140.99 79.6444 142.118 84.7637 141.42 90.1524C140.543 96.8703 136.89 102.331 132.861 107.504C129.511 111.967 125.281 115.691 120.434 118.443C112.86 122.61 105.429 122.951 98.1775 117.76C93.9517 114.743 89.7976 111.581 85.6434 108.456C85.2138 108.079 84.8184 107.664 84.4616 107.217C86.2522 104.81 86.2522 104.828 89.1888 106.642C92.1281 108.535 95.4454 109.759 98.9072 110.228C102.369 110.696 105.891 110.398 109.225 109.354C113.797 107.817 117.683 104.713 120.202 100.588C124.085 95.3396 126.079 88.9253 125.86 82.3927C125.663 78.6386 124.535 75.5131 120.81 73.8247C114.221 70.7352 107.685 67.6456 100.917 64.4843Z" fill="black"/>
<path d="M242.982 93.2422C238.058 92.1645 233.474 91.1945 228.926 90.1347C228.55 90.1347 228.192 89.4522 228.049 89.0211C227.977 88.4967 227.977 87.9648 228.049 87.4404V0C232.973 1.0957 237.593 2.11955 242.212 3.19729C242.517 3.19729 242.857 3.77208 242.964 4.14929C243.036 4.66769 243.036 5.19361 242.964 5.71201V93.2422H242.982Z" fill="black"/>
<path d="M162.782 117.222L149.567 132.185H169.962V132.813C169.3 132.813 168.637 132.921 167.992 132.921C162.155 132.921 156.336 132.921 150.516 132.921C149.518 132.971 148.577 133.402 147.884 134.125C138.781 144.702 130.366 155.855 122.691 167.517C122.279 168.163 122.046 168.936 121.616 169.582C121.222 170.065 120.785 170.509 120.309 170.911L119.629 170.337L136.514 146.465C134.401 147.381 132.736 148.261 130.981 148.836C128.8 149.67 126.537 150.272 124.231 150.632C120.47 151.063 119.665 150.093 120.076 146.375C118.393 147.309 116.764 148.171 115.099 149.141C114.41 149.509 113.691 149.815 112.95 150.057C110.031 150.991 109.225 150.327 109.225 147.291V145.495L100.971 150.039L100.273 149.482L104.874 141.292L104.391 140.699C103.354 141.021 102.357 141.461 101.419 142.01C98.0522 144.507 94.7934 147.129 91.4629 149.662C90.7108 150.237 89.8872 150.704 89.0277 151.243C88.5621 149.913 87.8638 150.668 91.6419 145.082C88.9202 145.854 86.485 146.608 84.0319 147.255C80.4532 147.925 77.1657 149.68 74.6135 152.284C73.4713 153.237 72.122 153.908 70.6742 154.242C70.1012 154.458 69.3313 154.063 68.3823 153.901C70.7995 150.183 75.1865 150.219 77.8544 147.758L77.5859 147.165L73.1989 147.704C70.9965 148.009 70.5131 147.704 70.531 145.315C68.3723 145.953 66.1058 146.139 63.8725 145.861C61.6391 145.583 59.4867 144.847 57.5492 143.699C56.9762 145.495 56.5107 147.111 55.8661 148.728C55.6143 149.404 55.1407 149.974 54.5231 150.345C53.6415 150.636 52.7273 150.817 51.8015 150.883C51.6004 150.052 51.4687 149.204 51.4075 148.351C51.5228 147.726 51.7279 147.121 52.0163 146.555C48.6321 147.902 45.3554 149.518 41.9174 150.506C38.1577 151.546 34.3188 152.273 30.4398 152.68C26.5005 153.129 24.119 150.363 25.5873 146.662C27.0513 143.026 29.0097 139.611 31.4067 136.514C35.1877 131.264 40.3796 127.202 46.376 124.802C48.6817 124.033 51.1133 123.716 53.5383 123.868C56.0809 123.994 56.9941 125.898 56.1884 128.395C54.8278 131.757 52.5034 134.639 49.5095 136.675C48.3277 137.609 46.9848 138.471 45.7314 139.226L45.3375 138.687C45.878 138.347 46.3982 137.975 46.8953 137.573C49.3663 135.256 51.8552 132.993 54.2187 130.586C54.8376 129.846 55.2787 128.973 55.508 128.035C56.0989 126.239 55.3289 124.676 53.413 124.73C50.833 124.638 48.26 125.053 45.8388 125.952C37.5851 129.764 30.9345 136.372 27.0556 144.615C26.6742 145.469 26.4034 146.368 26.2498 147.291C25.6052 150.47 27.3063 152.464 30.4935 152.177C39.6183 151.253 48.3756 148.088 55.9914 142.962C56.8613 142.499 57.7652 142.102 58.6952 141.777L58.2297 143.267C63.494 145.692 68.6329 146.572 73.6287 142.531C74.6235 141.754 75.7707 141.197 76.995 140.896C77.6396 140.717 78.4274 141.166 79.1437 141.327C79.0109 142.049 78.8008 142.753 78.517 143.429C78.3597 143.663 78.1458 143.854 77.8953 143.982C77.6448 144.111 77.3658 144.174 77.0845 144.166L78.6423 141.795C77.0536 141.618 75.4549 142.023 74.1393 142.933C72.8237 143.844 71.8796 145.2 71.48 146.752C73.7719 148.171 76.8517 144.471 79.0899 148.081C84.3363 145.603 90.8362 145.998 95.7782 141.777L89.7618 149.087L90.2453 149.608L94.3994 146.375C96.5839 144.704 98.7326 142.998 100.953 141.381C101.747 140.806 102.639 140.38 103.585 140.124C104.982 139.747 105.859 140.807 105.268 142.136C104.683 143.375 104.019 144.575 103.281 145.728C102.708 146.593 102.296 147.555 102.063 148.566C103.621 147.686 105.161 146.77 106.754 145.962C109.637 144.489 110.031 144.758 109.995 147.991V149.788C111.37 149.628 112.718 149.29 114.006 148.782C117.14 146.986 120.13 145.046 123.21 143.214C124.149 142.655 125.162 142.232 126.218 141.956C126.485 141.94 126.751 141.995 126.99 142.115C127.228 142.234 127.432 142.415 127.579 142.639C127.628 142.911 127.607 143.192 127.516 143.453C127.425 143.714 127.267 143.947 127.06 144.13C125.951 144.602 124.782 144.916 123.586 145.064C122.837 145.182 122.148 145.546 121.627 146.099C121.105 146.651 120.781 147.361 120.703 148.117C120.703 149.77 121.992 149.913 123.21 149.913C129.639 149.516 135.701 146.775 140.256 142.208C142.494 139.837 144.464 137.196 146.541 134.681C146.899 134.232 147.186 133.729 147.687 132.885L128.116 134.52L127.973 134.107C128.346 133.935 128.736 133.803 129.137 133.711C134.741 133.262 140.328 132.813 145.95 132.454C146.748 132.456 147.537 132.28 148.259 131.938C148.98 131.597 149.617 131.098 150.122 130.478C153.704 126.095 157.643 121.91 161.439 117.653C161.744 117.347 162.067 117.059 162.406 116.791L162.782 117.222ZM56.3674 143.86C55.3793 144.279 54.4915 144.904 53.7628 145.694C53.0342 146.484 52.4816 147.42 52.1417 148.441C52.0695 149.041 52.1059 149.649 52.2491 150.237C52.84 150.093 53.592 150.237 54.0397 149.806C54.8386 149.047 55.4613 148.12 55.8635 147.093C56.2658 146.065 56.4378 144.962 56.3674 143.86ZM69.564 152.949L69.8505 153.56C70.9558 153.472 72.0324 153.163 73.0166 152.651C74.0008 152.139 74.8726 151.434 75.5804 150.578L75.3297 150.057L69.564 152.949Z" fill="black"/>
<path d="M223.697 144.309C219.287 147.655 214.108 149.835 208.639 150.65C204.681 151.135 203.804 150.003 204.502 146.357C201.172 147.632 197.734 148.979 194.296 150.273C193.658 150.622 192.924 150.755 192.204 150.652C191.484 150.548 190.817 150.213 190.303 149.698C189.121 148.351 190.017 146.985 190.607 145.674C190.607 145.459 190.804 145.243 191.109 144.507L186.417 148.099C185.812 148.598 185.144 149.014 184.43 149.338C183.637 149.689 182.754 149.783 181.905 149.608C181.565 149.5 181.637 148.171 181.511 147.165C176.874 149.716 172.093 152.356 166.488 151.961C164.34 159.469 159.326 165.038 154.849 170.803C152.575 173.659 149.872 176.192 147.347 178.833C146.965 179.281 146.488 179.637 145.95 179.874C145.309 180.014 144.654 180.08 143.999 180.072C144.124 179.479 143.999 178.761 144.392 178.276C148.529 172.887 152.647 167.498 156.927 162.11C161.528 156.398 166.273 150.829 170.75 144.938L165.862 148.53C165.516 148.832 165.122 149.075 164.698 149.249C163.57 149.554 162.406 149.77 161.26 150.021L161.475 146.608C159.684 147.417 157.768 148.404 155.781 149.195C154.245 149.897 152.643 150.444 151 150.829C150.518 150.926 150.021 150.918 149.542 150.806C149.064 150.695 148.615 150.482 148.224 150.183C148.012 149.775 147.902 149.322 147.902 148.862C147.902 148.403 148.012 147.95 148.224 147.542C149.496 145.459 151.053 143.573 152.486 141.615L153.184 142.118C152.665 142.764 152.11 143.393 151.609 144.058C150.664 145.208 149.779 146.407 148.958 147.65C148.654 148.189 148.457 149.321 148.744 149.572C149.033 149.799 149.371 149.958 149.731 150.036C150.09 150.114 150.463 150.109 150.821 150.021C154.581 148.53 158.287 146.932 161.958 145.261C163.498 144.578 164.895 143.465 166.417 142.818C167.939 142.172 169.729 141.579 171.144 143.177L174.062 141.381L174.653 141.974L167.33 150.955C170.959 151.094 174.545 150.136 177.626 148.207C180.688 146.518 183.553 144.489 186.686 142.495C185.075 144.578 183.517 146.536 181.977 148.512L182.496 149.177C183.288 148.916 184.05 148.573 184.77 148.153C187.241 146.357 189.64 144.417 192.094 142.567C192.738 142.082 193.454 141.705 194.135 141.273L194.547 141.687C193.974 142.495 193.401 143.285 192.756 144.094C192.021 145.108 191.363 146.177 190.786 147.291C190.052 148.818 190.786 149.967 192.47 149.859C193.774 149.813 195.057 149.514 196.248 148.979C200.097 147.183 203.876 145.063 207.707 143.124C208.616 142.651 209.578 142.29 210.572 142.046C210.948 142.046 211.754 142.315 211.826 142.603C211.878 142.869 211.864 143.144 211.786 143.404C211.708 143.663 211.568 143.9 211.378 144.094C210.416 144.706 209.312 145.059 208.173 145.117C206.114 144.956 205.559 146.303 205.093 147.722C204.628 149.141 205.272 149.913 206.615 149.877C208.298 149.952 209.981 149.74 211.593 149.249C215.174 147.866 218.612 146.159 222.086 144.561C222.534 144.363 222.981 144.129 223.411 143.914L223.697 144.309ZM144.41 178.976L145.27 179.641C153.25 172.478 159.917 163.967 164.966 154.494L164.357 154.027L144.41 178.976ZM170.571 144.129C169.371 142.333 168.154 142.926 166.99 143.411C165.603 143.924 164.392 144.827 163.503 146.012C162.614 147.197 162.084 148.614 161.976 150.093L170.571 144.129Z" fill="black"/>
<path d="M131.465 136.963L127.651 140.555L127.131 139.998L131.017 136.514L131.465 136.963Z" fill="black"/>
</g>
<defs>
<clipPath id="clip0_26_81">
<rect width="243" height="180" fill="white"/>
</clipPath>
</defs>
</svg>
