<svg width="177" height="136" viewBox="0 0 177 136" fill="none" xmlns="http://www.w3.org/2000/svg">
<path d="M21.8685 74.4945C21.8585 75.0745 22.3086 75.464 22.4186 76.014C22.6186 77.084 22.6386 78.7542 22.8586 79.6742C22.8986 79.8242 23.1985 79.7837 23.2385 79.9437C23.3885 80.5637 23.5986 81.8444 23.8486 82.4144C24.5186 83.8944 26.6086 85.5738 28.2585 85.7338C29.2785 85.8338 31.7485 85.5746 32.7585 85.3246C32.9085 85.2846 32.8686 84.9837 33.0386 84.9437C33.2786 84.8837 33.5586 85.0042 33.8386 84.8841C33.8886 84.8642 33.9086 84.6243 34.0386 84.5443C36.7186 82.8743 38.2186 80.6739 39.4086 78.1039C39.8086 77.2339 40.8386 75.0537 40.9786 74.1937C41.3286 71.9637 41.8586 69.7944 42.3586 67.6644C42.6686 66.3544 42.1586 63.8446 42.3486 62.3646C42.3986 61.9846 42.7286 62.1741 42.7786 61.8041C43.0586 59.5641 42.8385 54.8741 42.3685 52.8841C42.1485 51.9441 42.8485 50.9145 41.8085 50.2845C40.9185 49.7445 40.0086 49.3541 39.2586 48.8841C38.6886 48.5241 36.2985 47.1044 36.2385 46.6244C36.1985 46.3044 36.1886 45.3646 36.2586 45.0746C36.2886 44.9446 36.5386 44.9745 36.6386 44.7845C36.7086 44.6545 36.5885 44.324 36.6785 44.184C36.7585 44.054 37.2685 44.0537 37.4885 43.9437C37.6385 43.8637 37.6386 43.5938 37.7786 43.5638C38.2686 43.4638 39.3586 43.9342 39.8386 44.1742C40.2786 44.3942 41.1385 45.3646 41.6785 45.3246C42.3185 45.2746 41.7986 41.4043 41.7286 40.7543C41.6386 39.9243 41.5085 37.7645 41.3785 37.2045C40.7485 34.5245 40.5685 31.1645 39.9985 28.5345C39.8685 27.9445 39.6585 26.6642 39.4285 25.9242C39.3185 25.5742 39.0485 25.6839 38.9985 25.3539C38.9485 24.9539 39.0586 24.4738 39.0186 24.0638C38.7486 24.0838 38.4286 24.0038 38.1686 24.0638C38.0986 24.0838 37.2586 24.9645 37.1986 24.9945C36.8186 25.1545 36.4286 25.2942 36.1086 25.4242C33.5986 26.4442 30.3585 27.2041 27.4985 26.8041C26.1385 26.6141 22.7885 24.994 21.5585 23.974C21.1785 23.654 19.4386 21.4945 19.1986 21.0345C18.9586 20.5745 18.7185 19.6341 18.5085 19.0941C17.7185 17.1341 17.1785 14.2245 17.7485 11.7845C17.7785 11.6345 18.1086 11.664 18.1386 11.514C18.5286 9.72403 18.4885 9.93411 19.5085 8.34411C20.9285 6.13411 21.5786 5.5643 24.0986 4.5443C24.2586 4.4843 25.2885 3.7938 25.3685 3.7738C25.8085 3.6638 28.7386 3.68426 29.2886 3.75426C29.6586 3.80426 29.5486 4.12442 29.7086 4.16442C30.7286 4.38442 30.7785 4.25426 31.7985 4.75426C32.6985 5.20426 35.2985 6.86442 36.0685 7.66442C38.0085 9.67442 39.1486 11.7846 40.3886 14.3646C40.4686 14.5346 40.6786 16.1145 41.2886 15.9945C41.4986 15.5945 41.8786 15.5037 42.2286 15.1937C44.4786 13.1937 46.5785 11.0043 49.3185 9.2943C51.5285 7.9143 53.8686 6.52454 56.3986 5.53454C57.4586 5.12454 58.9586 4.67376 59.9586 4.23376C62.2586 3.21376 64.2886 3.51446 66.7186 3.20446C67.0986 3.15446 66.9086 2.8238 67.2786 2.7738C68.2686 2.6438 71.4385 2.6438 72.4285 2.7738C72.8085 2.8238 72.6185 3.15446 72.9885 3.20446C73.8285 3.31446 74.8985 3.05446 75.7485 3.20446C76.8785 3.39446 79.3485 4.31446 80.5485 4.70446C84.5385 5.98446 87.5186 8.59376 91.0786 10.4838C93.6086 11.8238 95.5086 13.0745 98.3486 14.2445C99.4286 14.6845 100.589 15.1446 101.709 15.6146C111.389 19.6446 122.059 20.8739 133.289 20.3539C137.109 19.3439 141.189 18.8337 144.759 17.4437C144.979 17.3537 144.969 17.0238 145.129 16.9838C147.499 16.5138 149.809 15.3538 151.839 14.2338C152.229 14.0138 152.629 13.7641 153.069 13.6341C152.959 12.8641 152.239 12.564 151.779 12.184C148.719 9.58395 146.159 8.65395 142.779 6.93395C140.259 5.65395 137.219 5.23434 134.289 4.58434C134.129 4.55434 134.239 4.22419 133.869 4.17419C131.819 3.90419 124.459 3.90419 122.419 4.17419C122.239 4.19419 121.009 4.52415 120.509 4.63415C116.209 5.52415 112.129 6.84399 108.199 8.47399C107.089 8.93399 105.949 9.82454 104.839 10.2845C103.959 10.6545 103.179 11.0938 102.219 10.8138C101.889 10.7138 101.919 10.4744 101.769 10.3744C101.629 10.2744 101.329 10.3443 101.279 10.2943C101.159 10.1643 101.309 9.71422 101.249 9.46422C101.219 9.32422 100.609 9.34454 100.869 8.28454C100.899 8.17454 102.189 6.66438 102.289 6.62438C102.679 6.47438 103.089 6.64383 103.479 6.56383C103.579 6.54383 104.829 5.3545 105.049 5.2445C105.769 4.9045 106.929 4.53446 107.699 4.20446C115.469 0.89446 124.609 -0.876048 133.869 0.433952C136.049 0.743952 137.959 0.923717 140.119 1.44372C140.979 1.65372 142.719 2.40411 143.839 2.84411C148.099 4.49411 152.329 6.95419 155.819 10.1742C156.249 10.5742 156.339 10.7944 156.429 10.8744C156.559 10.9944 156.989 10.814 157.169 10.934C157.329 11.044 157.759 12.5241 158.319 12.3441C159.349 13.8841 158.659 14.9442 157.329 15.9642C157.109 16.1342 156.779 16.0838 156.559 16.2338C153.779 18.1238 150.699 19.6143 147.669 20.7943C146.049 21.4243 144.339 21.6245 142.869 22.2845C141.719 22.8045 139.449 23.4545 137.979 23.7045C129.399 25.1745 121.299 24.6739 112.749 23.1439C111.389 22.9039 110.419 22.7541 109.179 22.3441C107.609 21.8341 106.179 21.6541 104.739 21.3041C103.399 20.9841 101.919 20.1943 100.419 19.7543C97.6986 18.9543 91.4586 15.7941 88.5986 14.0541C85.7386 12.3041 83.4186 10.1737 80.2286 8.94372C77.0386 7.71372 71.4086 6.63399 67.6686 6.97399C66.8186 7.05399 63.5786 7.42383 62.9786 7.56383C62.8286 7.60383 62.8586 7.91446 62.7086 7.95446C61.6586 8.19446 61.2386 8.06383 60.0386 8.56383C58.5086 9.20383 56.8585 9.6938 55.2985 10.5238C51.8485 12.3438 49.0286 14.5744 46.1086 17.1644L42.3486 21.0541V21.3441C43.0686 21.2941 42.6286 22.2646 42.7586 22.8246C42.9486 23.6646 43.5686 25.1846 43.7286 25.8246C43.8886 26.5046 43.5786 27.6238 43.7286 28.3138C43.7586 28.4538 44.0686 28.4339 44.0986 28.6039C44.7386 31.2939 45.4285 35.5247 45.6885 38.4047C45.7885 39.5347 45.5385 40.8842 45.6785 41.9642C45.7285 42.3442 46.0586 42.1538 46.1086 42.5238C46.2486 43.6438 45.6085 46.9742 46.9285 47.4242C47.8285 47.7342 51.7286 47.6338 52.8886 47.5638C53.6486 47.5138 55.6686 47.144 56.3986 46.974C56.4686 46.954 57.1486 46.7046 57.6086 46.5746C59.1486 46.1646 60.3285 45.0841 61.8085 44.5541C62.3085 44.3741 62.8686 42.7547 64.5286 42.6547C65.7086 42.5847 65.6185 43.5339 66.5485 43.6439C66.8085 45.1739 66.5486 45.4542 65.6686 46.4642C64.8786 47.3742 63.7785 48.1338 62.6785 48.7338C60.9585 49.6638 57.8585 50.9645 55.8185 51.2845C55.1285 51.3945 54.1685 51.6742 53.8785 51.7142C51.9185 51.9742 49.3386 51.444 47.3586 51.684C47.0386 51.724 47.0085 52.0339 46.7385 52.1439C46.5085 55.4339 46.8185 58.7543 46.6785 62.0443C46.5185 65.9843 45.9586 69.6438 45.1386 73.3138C44.6586 75.4438 44.3086 77.394 43.3286 79.434C42.6186 80.914 41.8386 82.0338 41.2886 83.5638C41.2586 83.6438 40.0786 84.5247 40.0186 84.6547C39.8086 85.0847 39.6685 85.554 39.2385 85.974C37.2985 87.804 35.0485 88.4445 32.9885 89.7445C30.9385 89.4145 27.6186 90.144 25.7286 89.724C25.6586 89.714 24.8186 88.8243 24.7586 88.7943C22.7486 87.9543 21.9185 87.1241 20.8685 85.1341C20.7185 84.8441 20.2486 84.1739 20.0986 83.8539C19.2386 82.1239 18.1586 78.0341 18.5186 75.8441C18.5386 75.7041 19.0286 74.5541 19.0986 74.5541H21.8586L21.8685 74.4945ZM30.2686 8.57458C27.8886 7.42458 25.9485 7.5443 23.9885 9.2943C23.7385 9.5243 22.6086 10.7546 22.4086 11.1146C22.2386 11.4246 22.3685 11.7638 21.8785 11.9838V17.224C23.8085 21.274 26.8786 23.3237 31.6386 22.6937C32.0086 22.6437 31.8985 22.3245 32.0585 22.2845C33.5885 21.9345 34.8585 21.6244 36.1885 20.6244C36.6785 20.2544 37.0286 19.4942 37.6486 19.2142C37.5786 18.9242 37.3285 18.7142 37.2485 18.4242C36.6285 16.1242 36.0286 14.5341 34.6686 12.3841C34.0386 11.3841 31.3186 9.06383 30.2786 8.56383L30.2686 8.57458Z" fill="black"/>
<path d="M104.019 64.0533C104.019 64.0533 103.619 64.693 103.609 64.733C103.429 66.103 103.909 68.4133 103.609 69.6334C103.369 70.6433 102.989 72.0432 102.669 73.2632C102.349 74.4832 102.389 74.9632 101.839 76.0132C101.249 77.1432 100.928 78.5136 100.248 79.6636C100.038 80.0136 98.9785 80.9633 98.9385 81.0533C98.8185 81.3733 98.9485 81.8632 98.8485 81.9732C98.7885 82.0332 98.4685 81.9337 98.3385 82.0337C98.2485 82.1037 98.3085 82.4138 98.1485 82.5738C95.8785 84.8338 91.5085 87.883 88.5185 88.273C87.9085 88.353 87.1185 88.1735 86.5985 88.2935C86.4385 88.3335 86.5485 88.6537 86.1785 88.7037C85.2185 88.8237 81.9885 88.8237 81.0285 88.7037C80.6685 88.6537 80.7685 88.3335 80.6085 88.2935C80.0685 88.1635 79.2985 88.373 78.6885 88.273C77.6785 88.113 75.6985 87.1934 74.7785 86.7134C73.6685 86.1234 72.6485 85.7938 71.3785 84.8638C71.1485 84.6938 70.7485 84.0535 70.6485 84.0035C70.4285 83.8935 70.0785 84.0236 69.9485 83.9136C69.8885 83.8636 69.5985 82.9336 69.2585 82.6236C66.7485 80.2936 65.6885 78.3437 64.5785 75.0337C63.3585 71.3737 63.1285 67.533 63.6085 63.563C63.9885 60.413 64.7685 57.4736 66.2385 54.6636C66.6085 53.9536 67.1085 53.1239 67.5585 52.4039C67.9285 51.8139 68.6285 51.443 68.8485 50.983C68.9685 50.733 68.8685 50.343 68.9285 50.273C68.9785 50.223 69.4285 50.2731 69.6985 50.1431C69.9285 50.0231 71.4385 48.3436 72.0485 47.9136C74.1185 46.4236 75.9385 45.8734 78.4285 44.9234C79.5585 44.4934 79.6685 44.7635 80.6085 44.5435C80.7685 44.5035 80.6585 44.1833 81.0285 44.1334C82.6685 43.9234 86.3585 43.8039 87.8985 44.1539C88.0585 44.1939 87.9585 44.513 88.3185 44.563C89.8585 44.743 90.1385 44.8733 91.6285 45.5533C96.6385 47.8433 100.248 52.9633 102.178 58.0933C102.338 58.5333 102.269 59.243 102.729 59.733C102.969 59.803 107.498 59.7934 107.798 59.7134C107.948 59.6734 107.918 59.3638 108.068 59.3238C109.008 59.1038 109.509 59.1237 110.529 58.7037C112.329 57.9637 114.528 56.6534 115.948 54.9234C116.068 54.7834 115.948 54.4035 116.058 54.2535C118.368 51.3635 120.598 48.9833 123.938 47.3033C125.418 46.5633 127.388 45.5639 128.948 45.1539C130.928 44.6239 136.479 44.0933 138.509 44.5533C138.659 44.5833 138.658 44.8734 138.798 44.9234C141.218 45.8534 143.438 46.4037 145.528 48.0337C145.778 48.2337 146.458 49.1534 146.578 49.2134C146.809 49.3234 147.158 49.1933 147.278 49.3033C147.318 49.3333 147.339 49.8138 147.709 50.1138C148.079 50.4138 148.408 50.0232 148.318 51.0132L149.668 51.2437C149.448 48.4737 149.969 45.793 150.259 43.063C150.569 40.113 150.609 36.0735 151.249 33.2535C151.659 31.4335 152.169 29.5437 152.609 27.4937C152.699 27.0737 152.549 26.5834 152.629 26.1734C152.639 26.1034 153.399 25.1331 153.459 25.1031C153.749 24.9931 154.019 25.1037 154.249 25.0337C154.459 24.9737 154.309 24.4931 154.879 24.6431C154.959 24.6631 154.949 25.0035 155.109 25.0435C155.359 25.1035 155.798 24.9538 155.938 25.0738C155.998 25.1238 156.358 26.2031 156.418 26.3531C156.448 26.4231 156.709 26.4233 156.739 26.5533C157.029 27.6833 156.389 27.8032 156.359 27.9332C156.239 28.4332 156.469 29.1334 156.359 29.6334C156.129 30.6034 155.619 32.2835 155.379 33.2535C155.179 34.0735 155.569 35.5035 155.379 36.3335C155.139 37.3235 154.539 39.0833 154.389 40.3033C154.289 41.1133 154.559 42.3137 154.389 43.0337C153.879 45.1937 154.119 46.5135 154.009 48.7935C153.839 52.0635 153.449 55.0629 153.599 58.4429C153.639 59.4229 153.859 63.2836 154.009 63.9136C154.299 65.1336 154.558 66.7031 154.778 68.1031C155.068 69.9531 155.129 71.3932 155.369 73.2232C155.419 73.5932 155.738 73.4831 155.778 73.6431C155.938 74.3431 155.779 75.433 155.999 76.313C156.409 78.033 157.489 81.1035 158.369 83.0035C158.439 83.1635 159.119 84.0233 159.129 84.0933C159.199 84.3933 159.199 85.8634 159.129 86.1734C159.119 86.2434 158.358 87.2237 158.298 87.2437C157.938 87.3637 156.888 87.3833 156.518 87.3033C156.418 87.2833 155.088 85.9734 155.058 85.8834C154.848 85.3134 154.649 84.293 154.389 83.733C154.309 83.553 153.719 82.9938 153.639 82.8238C153.289 82.0538 152.838 80.4132 152.648 79.6832C152.498 79.1332 152.798 77.6734 151.658 78.3834C151.598 78.4133 150.749 79.2237 150.729 79.2837C150.079 80.9137 148.418 83.2436 147.078 84.4136C145.739 85.5836 143.448 87.143 141.928 87.733C136.828 89.723 130.339 89.6129 125.209 87.6929C122.649 86.7329 119.018 83.9137 117.058 81.5337C115.818 80.0337 114.758 77.5239 114.008 75.6539C113.578 74.5939 113.848 74.5436 113.628 73.6636C113.538 73.2736 113.118 72.5639 113.048 71.6539C112.928 70.0839 112.368 67.8937 113.058 66.7437C112.818 66.1137 113.319 62.9032 113.159 62.6832C112.949 62.3932 111.389 62.6037 111.019 62.7037C110.479 62.8537 107.309 64.0738 106.839 64.0738C106.309 64.0738 104.239 63.9638 103.979 64.0738L104.019 64.0533ZM87.4685 48.2935H81.0685C81.0685 48.2935 80.7785 48.6032 80.4685 48.6832C77.6585 49.3932 75.7585 50.2432 73.5385 52.2232C73.0285 52.6832 72.2085 53.6238 71.8985 53.8638C71.6885 54.0238 71.3785 53.993 71.3485 54.023C71.2385 54.153 71.3885 54.6229 71.2685 54.9429C71.2085 55.1029 69.6185 56.8437 69.4885 57.2037C69.1085 58.2137 68.8885 59.0334 68.5085 59.9634C67.9885 61.2234 68.2085 62.3235 67.9785 63.3335C67.9385 63.4935 67.6185 63.3835 67.5685 63.7535C67.3985 65.0535 67.3985 69.5736 67.5685 70.8736C67.6185 71.2436 67.9385 71.1335 67.9785 71.2935C68.4685 73.5735 68.7185 74.9832 69.8985 77.0132C70.2485 77.6132 73.3485 81.4035 73.7385 81.5435C74.3785 81.7735 74.6385 81.2437 74.8085 82.2037C81.7285 86.0837 90.5485 85.3937 95.6185 78.9937C97.6485 76.4437 98.2785 74.1835 98.9085 71.2935C98.9385 71.1535 99.2585 71.183 99.2985 71.023C99.6085 69.763 99.6485 66.2837 99.4985 64.9537C99.4185 64.1837 98.9185 63.743 98.1685 63.523C96.8485 63.143 95.6585 63.043 94.3285 62.483C92.0385 61.513 88.9285 58.9235 88.0585 56.5035C87.9685 56.2535 87.4785 54.823 87.4685 54.733C87.3885 54.113 87.3885 52.1733 87.4685 51.5533C87.5585 50.8833 88.1885 49.9837 88.0785 49.2037C88.0085 48.7337 87.4285 48.803 87.4785 48.313L87.4685 48.2935ZM138.239 48.9429C136.409 48.1229 130.298 48.9839 128.678 49.6539C127.398 50.1839 126.148 50.6632 125.048 51.2632C123.558 52.0632 121.009 54.633 120.169 56.233C119.959 56.633 118.429 58.7136 118.399 58.8736C118.199 59.8536 118.208 59.8129 117.888 60.6929C117.428 61.9829 117.659 62.8436 117.399 63.9136C117.359 64.0736 117.038 63.9635 116.988 64.3335C116.818 65.5935 116.828 69.9935 116.988 71.2535C117.038 71.6135 117.359 71.5134 117.399 71.6734C117.519 72.1734 117.289 72.8636 117.399 73.3736C117.509 73.8436 118.869 76.5335 119.159 77.0035C120.949 79.8835 122.018 81.0033 124.808 82.6334C126.758 83.7733 127.459 83.9133 129.649 84.5533C129.819 84.6033 129.788 84.8932 129.928 84.9332C130.428 85.0532 137.229 85.0532 137.729 84.9332C137.869 84.9032 137.849 84.6133 138.009 84.5533C140.789 83.6433 142.588 83.1337 144.808 80.7837C146.848 78.6337 147.938 76.4831 148.788 73.8931C148.998 73.2531 149.568 72.0233 149.678 71.5933C150.768 67.3733 150.138 62.6736 148.688 58.8736C148.468 58.2936 147.489 57.1839 147.379 56.9039C146.219 54.1139 144.018 51.6933 141.268 50.5933C141.168 50.5533 139.809 49.293 139.709 49.273C138.889 49.103 139.029 49.3029 138.219 48.9429H138.239ZM93.1085 51.3238C92.6585 51.0538 92.1885 50.9131 91.7985 51.3931C91.0485 54.1831 92.3085 56.2133 94.4185 57.8033C95.1485 57.9233 96.0885 58.8836 96.8485 58.9136C97.5085 58.9436 98.1185 58.8338 97.8985 58.0738C97.8585 57.9338 97.5985 57.9337 97.5285 57.7837C96.7785 56.1937 95.7085 54.2137 94.5385 52.7837C94.3685 52.5837 93.2285 51.4038 93.1085 51.3238Z" fill="black"/>
<path d="M176.71 135.174H0.200462C0.0604621 134.874 -0.149562 133.794 0.300438 133.794H176.61C177.06 133.794 176.85 134.874 176.71 135.174Z" fill="black"/>
<path d="M0 108.184L0.179993 106.924L176.03 106.794L176.9 107.204L176.71 108.184H0Z" fill="black"/>
<path d="M97.5195 114.884C98.2195 114.974 99.1895 114.733 99.8295 114.943C100.05 115.013 101.37 116.783 101.66 117.103C102.65 118.203 103.98 119.504 104.99 120.744C105.53 121.414 105.32 122.264 106.58 121.974V114.884H108.94V126.704L107.02 126.654C106.28 126.044 105.81 125.173 105.19 124.483C103.96 123.133 102.46 121.744 101.33 120.124C101.23 119.984 101.29 119.694 101.24 119.644C100.93 119.364 99.8795 119.934 99.8795 120.004V126.704H97.5195V114.884Z" fill="black"/>
<path d="M62.8497 114.884C62.8497 114.884 62.8097 115.174 62.8997 115.214C64.6597 116.014 65.6597 116.534 66.5297 118.294C67.7797 120.854 66.6897 123.264 65.1497 125.264C64.2497 125.864 63.3497 126.024 62.3997 126.314C62.1697 126.384 62.2797 126.704 62.2597 126.704H54.3797C54.4397 126.514 54.1797 126.274 54.1797 126.214V114.884C55.3897 115.124 62.3397 114.564 62.8497 114.884ZM61.7897 116.934C61.0497 116.604 57.0997 116.383 56.7297 116.983C56.4697 117.393 56.4497 122.654 56.5397 123.454C56.5997 123.974 56.8097 124.434 57.1297 124.834C57.6097 125.124 60.9997 124.904 61.7097 124.724C61.8697 124.684 61.8297 124.424 61.9997 124.354C62.1797 124.284 62.4897 124.394 62.7897 124.284C63.0297 124.194 63.2297 123.494 63.2997 123.424C63.3697 123.354 64.0897 123.144 64.1597 122.914C64.3297 122.374 64.1097 121.834 64.2297 121.334C64.2597 121.204 64.8597 121.224 64.6097 120.354C64.5697 120.204 64.2597 120.224 64.2197 120.084C64.1297 119.684 64.2897 119.194 64.2197 118.784C64.1997 118.684 62.8897 117.354 62.7997 117.324C62.3297 117.154 62.2297 117.154 61.7897 116.954V116.934Z" fill="black"/>
<path d="M27.5306 114.934C27.5306 114.934 27.6406 115.234 27.8206 115.334C30.9806 117.154 31.1407 119.265 30.9207 122.825C30.1407 123.335 30.0906 124.684 29.3306 125.204C29.1206 125.354 28.7906 125.274 28.6206 125.384C28.4006 125.534 27.1407 126.674 27.0407 126.694C26.6307 126.774 26.1407 126.614 25.7307 126.694C25.5707 126.724 25.6806 127.054 25.3106 127.104C24.9206 127.154 23.3007 127.164 22.9707 127.084C22.8207 127.044 22.8506 126.724 22.7006 126.694C21.6206 126.464 20.6106 126.284 19.5506 125.624C19.4706 125.574 18.1907 124.364 18.1607 124.274C17.9207 123.614 17.7506 122.824 17.5006 122.104C17.4506 121.974 17.1606 121.964 17.1306 121.814C17.0606 121.514 17.0606 120.024 17.1306 119.724C17.1606 119.584 17.4606 119.604 17.5106 119.444C18.0106 117.764 18.0806 117.084 19.5806 115.924C20.7106 115.044 22.1407 114.694 23.5407 114.474C23.8707 114.424 27.3206 114.824 27.5206 114.914L27.5306 114.934ZM26.1607 116.714C25.2007 116.294 22.3207 116.725 21.3507 117.325C19.7607 118.315 19.5706 121.194 20.1206 122.804C20.1506 122.904 21.4607 124.225 21.5407 124.285C21.6207 124.345 23.0307 124.894 23.1707 124.914C24.0207 125.014 25.2506 125.014 26.0506 124.724C26.1706 124.684 26.1707 124.434 26.3507 124.354C26.5207 124.284 26.8406 124.395 27.1306 124.285C27.4906 124.145 28.1406 122.424 28.5606 122.234V119.164C27.5806 118.084 27.6806 117.704 26.3406 117.054C26.2306 117.004 26.2106 116.744 26.1506 116.714H26.1607Z" fill="black"/>
<path d="M45.2606 114.943C45.5206 115.053 46.6806 115.723 47.0106 115.943C48.2706 116.813 48.7106 118.473 49.0706 119.853C49.1106 120.013 49.4106 119.994 49.4406 120.134C49.5006 120.404 49.5006 121.163 49.4406 121.433C49.4106 121.573 49.1106 121.573 49.0706 121.723C48.9406 122.193 48.9707 122.783 48.8407 123.183C48.7807 123.383 47.1907 125.593 47.0407 125.643C46.3807 125.873 45.9507 125.963 45.2707 126.303C44.4507 126.723 44.7506 126.503 43.8706 126.683C43.7106 126.713 43.8206 127.044 43.4506 127.094C43.0006 127.154 41.7006 127.154 41.2606 127.094C40.8906 127.044 41.0007 126.723 40.8407 126.683C39.9807 126.503 40.2306 126.683 39.4406 126.303C38.0906 125.673 37.0906 125.454 36.2606 124.154C35.6906 123.254 35.8407 122.984 35.6507 122.084C35.6207 121.924 35.2906 122.034 35.2406 121.664C35.1906 121.274 35.1906 120.254 35.2406 119.864C35.2906 119.474 35.6107 119.603 35.6507 119.443C35.8407 118.553 35.6706 118.374 36.1906 117.464C36.5006 116.924 38.7906 114.923 39.1406 114.853C40.4406 114.573 44.0406 114.404 45.2506 114.914L45.2606 114.943ZM42.7006 116.324C41.8406 115.914 41.7306 116.634 41.6306 116.654C40.7706 116.844 40.3207 116.714 39.4707 117.324C39.0407 117.634 38.5707 118.463 38.0307 118.763L38.0706 122.424C39.1806 123.944 39.6207 124.823 41.6607 124.933C42.3707 124.973 43.4006 124.993 44.0606 124.763C44.3106 124.673 44.3207 124.444 44.3906 124.404C44.6006 124.294 44.9006 124.394 45.0506 124.284C47.7106 122.464 47.1307 117.704 43.9807 116.704C43.6107 116.584 43.2106 116.724 42.8806 116.654C42.7406 116.624 42.7406 116.354 42.6906 116.324H42.7006Z" fill="black"/>
<path d="M88.8013 114.943C88.8013 114.943 88.8613 115.194 89.0113 115.264C89.9013 115.674 91.0713 116.594 91.6113 117.394C92.0713 118.064 92.7113 120.434 92.5913 121.274C92.3613 122.784 91.4013 124.883 90.0713 125.693C89.0113 126.343 88.4213 126.444 87.2213 126.704C87.0613 126.734 87.1713 127.064 86.8013 127.114C86.3513 127.174 85.0513 127.174 84.6113 127.114C84.2413 127.064 84.3513 126.744 84.1913 126.704C83.3013 126.504 83.5313 126.804 82.6013 126.324C81.4813 125.754 81.1513 125.774 80.3113 124.814C79.1713 123.504 79.3313 123.684 79.0013 122.104C78.9713 121.944 78.6413 122.054 78.5913 121.684C78.5313 121.264 78.5613 120.344 78.6213 119.904C78.6913 119.364 79.3113 117.824 79.6013 117.374C79.8013 117.064 82.2213 114.934 82.5013 114.874C83.1213 114.744 85.6513 114.404 86.2113 114.454C86.5213 114.484 88.6813 114.874 88.8013 114.924V114.943ZM86.0413 116.324C85.7713 116.204 85.1413 116.194 84.8513 116.264C84.7113 116.294 84.7513 116.574 84.5713 116.634C84.3613 116.714 84.0513 116.604 83.7413 116.754C83.3513 116.944 82.0413 117.954 81.8213 118.284C81.7213 118.434 81.8113 118.714 81.7413 118.844C81.6513 119.034 81.4213 119.014 81.3813 119.164C81.1113 120.084 81.1113 121.484 81.3813 122.404C81.4213 122.544 81.6513 122.524 81.7413 122.714C81.8013 122.844 81.7113 123.124 81.8113 123.284C81.8513 123.344 82.7213 124.244 82.7913 124.274C83.0913 124.384 83.3713 124.274 83.5813 124.334C83.7813 124.394 83.7113 124.774 84.2513 124.874C86.0113 125.204 88.3113 124.864 89.3713 123.284C89.5313 123.054 89.2813 122.604 89.8213 122.424L89.7713 118.674C88.9113 118.004 88.2713 116.954 87.1513 116.664C86.4813 116.494 86.6113 116.594 86.0313 116.324H86.0413Z" fill="black"/>
<path d="M131.199 114.884C131.199 114.884 131.169 115.164 131.259 115.214C131.989 115.574 132.289 115.893 132.849 116.193C133.079 116.323 133.419 116.194 133.539 116.294C133.609 116.354 133.539 116.653 133.639 116.773C133.769 116.933 134.479 117.633 134.499 117.683C134.609 117.963 134.499 118.243 134.559 118.483C134.599 118.653 134.909 118.614 134.949 118.764C135.179 119.764 135.199 121.813 134.939 122.813C134.899 122.973 134.629 122.933 134.569 123.103C134.499 123.283 134.619 123.604 134.559 123.804C134.539 123.874 133.759 124.653 133.649 124.813C133.549 124.953 133.619 125.254 133.569 125.294C133.439 125.404 132.989 125.274 132.739 125.324C132.579 125.364 132.579 125.673 132.359 125.773C131.829 126.013 131.229 126.113 130.779 126.313C130.569 126.403 130.659 126.704 130.639 126.704H122.759C122.819 126.514 122.559 126.274 122.559 126.214V114.884C123.829 115.154 130.629 114.534 131.229 114.884H131.199ZM129.729 116.654C128.399 116.424 126.499 116.824 125.099 116.654L125.029 124.494C125.349 125.254 129.199 124.943 130.069 124.723C130.229 124.683 130.199 124.393 130.359 124.353C130.609 124.293 130.939 124.424 131.159 124.304C131.249 124.254 131.319 123.884 131.479 123.744C131.669 123.564 132.099 123.393 132.139 123.313C132.239 123.143 132.139 122.863 132.199 122.733C132.299 122.533 132.539 122.563 132.569 122.433C132.649 122.123 132.649 119.474 132.569 119.164C132.539 119.034 132.269 119.024 132.249 118.964C132.149 118.734 132.229 118.444 132.129 118.294C132.089 118.234 131.219 117.333 131.149 117.313C130.849 117.203 130.569 117.314 130.359 117.244C130.189 117.194 130.099 116.724 129.719 116.664L129.729 116.654Z" fill="black"/>
<path d="M157.998 114.884L157.798 116.654H151.098C151.058 117.234 151.358 117.764 150.698 117.934V118.224C151.398 118.164 151.008 119.094 151.098 119.614C151.278 119.794 155.528 119.434 156.278 119.614C156.368 119.634 156.568 120.274 157.198 120.004V121.264C157.128 121.744 151.838 121.524 151.098 121.574V124.624L151.398 124.924H158.198V126.693H148.738V114.874H157.998V114.884Z" fill="black"/>
<path d="M13.3992 114.884C13.3292 115.254 13.4992 115.844 13.4092 116.154C13.3592 116.324 13.0592 116.234 12.8892 116.344C12.7992 116.394 12.7893 116.624 12.6693 116.654C11.7993 116.864 6.97925 116.453 6.72925 116.693C6.32925 117.473 6.10921 118.514 6.31921 119.474C6.33921 119.554 7.25923 120.604 7.39923 120.604H12.4193V121.983H7.09924C7.09924 121.983 7.14924 122.264 6.96924 122.394C6.78924 122.524 6.3092 122.544 6.3092 122.584V126.724H3.94922V114.904H13.4092L13.3992 114.884Z" fill="black"/>
<path d="M172.97 114.884C173.19 115.234 172.73 116.654 172.58 116.654H168.94L168.68 116.983C168.22 118.333 169.23 126.434 168.12 126.704H166.28V117.733C166.28 117.393 166.67 116.943 165.9 116.733C164.18 116.253 161.24 117.704 161.75 114.874H172.98L172.97 114.884Z" fill="black"/>
<path d="M142.63 114.884H140.27V126.704H142.63V114.884Z" fill="black"/>
<path d="M176.881 110.134H0.03125" stroke="#1D1D1B" stroke-width="0.39" stroke-miterlimit="10"/>
<path d="M176.881 131.574H0.03125" stroke="#1D1D1B" stroke-width="0.39" stroke-miterlimit="10"/>
</svg>
