<svg width="242" height="81" viewBox="0 0 242 81" fill="none" xmlns="http://www.w3.org/2000/svg">
<g clip-path="url(#clip0_26_70)">
<path d="M49.8842 5.59902L49.8227 5.49952L49.7882 5.534L41.2101 14.0952L31.5921 23.663C29.4169 25.8328 29.5396 29.4686 31.8646 31.7877C34.1893 34.107 37.8378 34.2295 40.0091 32.0633L49.6003 22.4956C51.6256 26.3593 52.3277 30.7783 51.5993 35.0774C50.8709 39.3765 48.7522 43.3198 45.5664 46.305C42.3807 49.2901 38.303 51.1531 33.9563 51.6095C29.6095 52.0658 25.2325 51.0907 21.4936 48.8325C17.7547 46.5745 14.8592 43.1578 13.2495 39.1039C11.6399 35.0503 11.4043 30.5824 12.579 26.3827C13.7536 22.183 16.2739 18.4821 19.7547 15.8453C23.2357 13.2085 27.4861 11.7807 31.8569 11.7798H32.0371C33.371 11.7949 34.6708 11.3597 35.7253 10.5447C36.7799 9.72966 37.527 8.58284 37.8455 7.29062C38.0572 6.43156 38.072 5.53595 37.8891 4.67038C37.706 3.80479 37.3298 2.9915 36.7881 2.29097C36.2467 1.59044 35.5538 1.02068 34.7612 0.624049C33.9685 0.227419 33.0965 0.0141053 32.2097 0H31.4732C23.8725 0.0878891 16.5541 2.88525 10.8406 7.88645C5.12714 12.8876 1.39556 19.7627 0.320283 27.2692C-0.754989 34.7757 0.897013 42.4181 4.97769 48.8155C9.05836 55.2129 15.2985 59.943 22.5703 62.151C29.8421 64.3589 37.6657 63.8992 44.6273 60.8545C51.5888 57.81 57.229 52.3816 60.5283 45.5504C63.8278 38.7193 64.5686 30.9361 62.6172 23.6077C60.6657 16.2791 56.1507 9.8887 49.888 5.59141L49.8842 5.59902Z" fill="black"/>
<path d="M32.5582 79.4965C32.3647 79.6773 32.1097 79.778 31.8446 79.778C31.5795 79.778 31.3243 79.6773 31.131 79.4965L23.1205 71.9457L18.7431 67.8201C18.5682 67.6581 18.4547 67.4407 18.4217 67.2049C18.3889 66.969 18.4387 66.729 18.5628 66.5256C18.6869 66.3221 18.8777 66.1676 19.1028 66.0883C19.3279 66.0089 19.5736 66.0097 19.7982 66.0902C27.6024 68.7975 36.0942 68.7975 43.8986 66.0902C44.1226 66.0156 44.3655 66.0194 44.5873 66.1009C44.8089 66.1825 44.9962 66.3369 45.1181 66.5387C45.2401 66.7406 45.2894 66.9779 45.2581 67.2115C45.2269 67.445 45.1167 67.6612 44.9459 67.8239L40.5685 71.9495L32.5582 79.4965Z" fill="black"/>
<path d="M100.552 17.374C102.203 18.2008 103.625 19.419 104.695 20.9218V16.0651H112.567C112.567 26.5999 112.581 37.137 112.609 47.6769C112.656 50.338 112.06 52.9713 110.872 55.3539C109.707 57.6152 107.895 59.4802 105.666 60.7118C103.364 62.031 100.564 62.6917 97.2677 62.6944C92.8635 62.6944 89.2521 61.6738 86.4336 59.6326C85.0661 58.6729 83.9268 57.425 83.096 55.9773C82.2654 54.5296 81.7638 52.9176 81.6265 51.2552H89.4107C89.8297 52.68 90.7815 53.8897 92.0693 54.6345C93.5715 55.5067 95.2886 55.9417 97.026 55.8898C99.2997 55.8898 101.146 55.2099 102.566 53.85C103.985 52.49 104.695 50.4337 104.695 47.6807V42.8739C103.609 44.3926 102.181 45.6353 100.525 46.5019C98.656 47.4944 96.5645 47.995 94.4479 47.9562C91.916 47.9778 89.4302 47.2795 87.2815 45.9431C85.0814 44.5631 83.3083 42.601 82.1599 40.2754C80.8671 37.6594 80.2236 34.7717 80.2839 31.8557C80.2279 28.9708 80.8716 26.1151 82.1599 23.5319C83.2997 21.2362 85.0621 19.3057 87.247 17.9596C89.414 16.6489 91.9063 15.9714 94.4403 16.004C96.5586 15.9587 98.6563 16.429 100.552 17.374ZM103.575 27.0948C102.881 25.7902 101.834 24.7065 100.552 23.968C99.3113 23.2481 97.9009 22.8715 96.4659 22.8774C95.0247 22.8623 93.6073 23.2422 92.3678 23.9758C91.1284 24.7094 90.1148 25.7684 89.4376 27.0374C88.6412 28.5221 88.2446 30.1875 88.2866 31.8711C88.25 33.571 88.646 35.2524 89.4376 36.7582C90.1352 38.0819 91.1801 39.1916 92.4607 39.9692C93.6678 40.7007 95.0534 41.0873 96.4659 41.0866C97.9009 41.0925 99.3113 40.7159 100.552 39.9958C101.833 39.2565 102.88 38.1732 103.575 36.8692C104.312 35.345 104.695 33.6743 104.695 31.9821C104.695 30.2897 104.312 28.619 103.575 27.0948Z" fill="black"/>
<path d="M120.117 23.5472C121.261 21.2439 123.032 19.3079 125.227 17.9598C127.395 16.6497 129.889 15.9721 132.424 16.004C134.533 15.9577 136.621 16.4378 138.497 17.4011C140.133 18.2469 141.559 19.4489 142.667 20.918V16.0615H150.535C150.535 26.521 150.535 37.4932 150.562 47.9527H142.667V42.9238C141.587 44.4409 140.157 45.6762 138.497 46.5252C136.603 47.5068 134.492 47.9978 132.359 47.9527C129.835 47.9762 127.357 47.2777 125.219 45.9396C123.031 44.5526 121.269 42.5917 120.124 40.2716C118.833 37.6553 118.191 34.7678 118.252 31.8521C118.196 28.9745 118.835 26.1259 120.117 23.5472ZM141.535 27.095C140.84 25.79 139.791 24.7065 138.508 23.9682C137.583 23.4146 136.554 23.0542 135.485 22.9087C134.416 22.7633 133.328 22.836 132.288 23.1222C131.248 23.4084 130.277 23.9025 129.434 24.5742C128.59 25.2458 127.893 26.0812 127.383 27.0299C126.585 28.5139 126.188 30.18 126.232 31.8635C126.193 33.5636 126.589 35.2455 127.383 36.7507C128.08 38.0743 129.125 39.1842 130.406 39.9616C131.612 40.6933 132.996 41.0799 134.407 41.0791C135.842 41.0851 137.253 40.7086 138.493 39.9885C139.775 39.2493 140.824 38.166 141.52 36.8617C142.255 35.3368 142.636 33.6665 142.636 31.9745C142.636 30.2826 142.255 28.6122 141.52 27.0874L141.535 27.095Z" fill="black"/>
<path d="M170.003 17.4594C171.704 16.5112 173.625 16.0304 175.574 16.0663V24.2754H173.506C171.04 24.2754 169.182 24.8521 167.932 26.0053C166.681 27.1586 166.057 29.169 166.06 32.0368V47.9575H158.222C158.222 37.4942 158.222 26.5258 158.222 16.0663H166.049V21.3132C167.017 19.7143 168.378 18.3878 170.003 17.4594Z" fill="black"/>
<path d="M188.672 16.0654H180.834V47.9566H188.672V16.0654Z" fill="black"/>
<path d="M222.549 19.5564C224.824 21.8834 225.961 25.1311 225.964 29.3001V47.9573H218.227L218.126 30.3526C218.126 27.8905 217.51 25.9999 216.278 24.6809C215.044 23.3618 213.366 22.701 211.241 22.6984C209.071 22.6984 207.362 23.3593 206.114 24.6809C204.867 26.0024 204.242 27.8931 204.238 30.3526L204.274 47.9573H196.412C196.412 37.3256 196.404 26.6952 196.386 16.0661H204.211C204.211 17.4974 204.211 18.9326 204.238 20.3639C205.304 19.0101 206.676 17.929 208.244 17.2104C209.918 16.4338 211.745 16.0415 213.592 16.0623C217.287 16.0649 220.274 17.2295 222.549 19.5564Z" fill="black"/>
<path d="M241.249 16.0654H233.411V47.9566H241.249V16.0654Z" fill="black"/>
<path d="M184.756 12.8476C187.305 12.8476 189.371 10.7864 189.371 8.24364C189.371 5.70094 187.305 3.63965 184.756 3.63965C182.207 3.63965 180.14 5.70094 180.14 8.24364C180.14 10.7864 182.207 12.8476 184.756 12.8476Z" fill="black"/>
<path d="M237.386 12.8476C239.935 12.8476 242.002 10.7864 242.002 8.24364C242.002 5.70094 239.935 3.63965 237.386 3.63965C234.837 3.63965 232.771 5.70094 232.771 8.24364C232.771 10.7864 234.837 12.8476 237.386 12.8476Z" fill="black"/>
</g>
<defs>
<clipPath id="clip0_26_70">
<rect width="242" height="81" fill="white"/>
</clipPath>
</defs>
</svg>
