<svg width="209" height="132" viewBox="0 0 209 132" fill="none" xmlns="http://www.w3.org/2000/svg">
<path d="M185.975 112.039C187.575 112.539 189.205 112.769 190.815 112.749C192.415 112.719 193.986 112.429 195.446 111.899C198.366 110.819 200.805 108.819 202.355 106.299C203.925 103.779 204.546 100.789 204.196 97.9389L204.115 97.4086L204.076 97.1391C204.066 97.0491 204.036 96.9693 204.016 96.8793C203.926 96.5293 203.856 96.1785 203.766 95.8285L203.415 94.809C203.285 94.479 203.115 94.1585 202.975 93.8285C202.345 92.5485 201.495 91.3788 200.475 90.3988C198.455 88.3888 195.705 87.1188 192.855 86.8588C191.425 86.7188 189.975 86.8386 188.555 87.1586L187.506 87.4594C187.166 87.5794 186.825 87.7288 186.485 87.8588C186.315 87.9188 186.145 87.9993 185.985 88.0893L185.495 88.3393C185.155 88.4893 184.865 88.7088 184.545 88.8988C182.075 90.4988 180.095 92.9989 179.125 95.9389C178.635 97.4089 178.385 98.9785 178.405 100.579C178.405 100.979 178.405 101.389 178.465 101.779C178.515 102.179 178.545 102.589 178.605 102.989C178.735 103.799 178.945 104.599 179.215 105.389C178.745 104.699 178.355 103.939 178.025 103.159C177.735 102.359 177.435 101.549 177.285 100.689C176.935 98.9889 176.906 97.2086 177.206 95.4486C177.796 91.9286 179.785 88.6088 182.685 86.3188C184.135 85.1788 185.795 84.2691 187.585 83.7191C189.365 83.1591 191.256 82.9289 193.136 83.0189C195.016 83.1189 196.885 83.569 198.625 84.309C200.355 85.079 201.945 86.1589 203.305 87.4789C204.655 88.8089 205.775 90.3693 206.585 92.0893C207.395 93.7993 207.885 95.6487 208.025 97.5287C208.325 101.289 207.225 105.119 204.995 108.059C203.885 109.529 202.515 110.799 200.975 111.759C199.435 112.729 197.735 113.399 195.995 113.769C192.505 114.469 188.836 113.819 186.016 112.009L185.975 112.039Z" fill="black"/>
<path d="M42.35 128.381L0 127.79L42.35 127.21V128.381Z" fill="black"/>
<path d="M160.988 127.21L208.158 127.79L160.988 128.381V127.21Z" fill="black"/>
<path d="M52.4609 122.4H56.4509C59.2609 122.4 60.4509 123.731 60.4509 125.811C60.4509 129.361 57.6209 131.69 53.8609 131.69H49.4609L52.4609 122.4ZM54.2709 129.83C56.5609 129.83 58.2509 128.17 58.2509 126.11C58.2509 124.83 57.4809 124.25 55.8809 124.25H54.0809L52.2809 129.82H54.2709V129.83Z" fill="black"/>
<path d="M69.5914 124.19L68.9314 126.221H74.4814L73.9814 127.75H68.4314L67.7314 129.9H73.3714L72.7814 131.69H64.9414L67.9514 122.4H75.8014L75.2114 124.19H69.5814H69.5914Z" fill="black"/>
<path d="M82.0691 122.4H84.2691L81.8491 129.841H87.3391L86.7391 131.69H79.0391L82.0691 122.4Z" fill="black"/>
<path d="M95.9006 122.4H98.1106L95.1006 131.69H92.8906L95.9006 122.4Z" fill="black"/>
<path d="M104.039 122.4H106.199L106.569 129.601H106.859L111.799 122.4H114.199L107.689 131.69H104.649L104.049 122.4H104.039Z" fill="black"/>
<path d="M121.74 124.19L121.08 126.221H126.63L126.13 127.75H120.58L119.88 129.9H125.52L124.93 131.69H117.09L120.1 122.4H127.95L127.36 124.19H121.73H121.74Z" fill="black"/>
<path d="M139.393 128.511L140.183 131.69H138.063L137.403 128.931H134.333L133.433 131.69H131.223L134.223 122.4H138.783C140.953 122.4 141.983 123.26 141.983 124.91C141.983 126.56 140.853 127.89 139.413 128.5L139.393 128.511ZM139.743 125.341C139.743 124.521 139.243 124.25 138.293 124.25H135.813L134.843 127.271H137.433C138.623 127.261 139.743 126.511 139.743 125.351V125.341Z" fill="black"/>
<path d="M151.68 128.74L150.729 131.69H148.53L149.51 128.601L147.77 122.4H149.99L151.099 126.511H151.32L155.049 122.4H157.52L151.68 128.74Z" fill="black"/>
<path d="M9.4408 83.3604H19.8608L19.2708 100.58H20.0108L28.8508 83.4004H40.1708L31.8308 113.94H23.5808L27.3008 100.44H26.4908L19.7908 113.94H13.4308L13.7708 100.44H12.9608L9.24078 113.94H1.05078L9.42078 83.3604H9.4408Z" fill="black"/>
<path d="M55.4603 109.891H44.4803L42.2203 113.931H33.0703L50.7803 83.3506H62.8703L64.0503 113.931H55.5203L55.4603 109.891ZM55.3903 102.431L55.2703 92.8203H54.0303L48.6703 102.431H55.4003H55.3903Z" fill="black"/>
<path d="M78.4316 104.54L75.8616 113.931H67.2716L69.9716 103.99L65.3516 83.3506H74.0016L76.2916 94.6006H76.9716L85.3116 83.3506H94.7716L78.4316 104.53V104.54Z" fill="black"/>
<path d="M88.6689 103.82H95.9589C95.5289 106.26 97.7589 107.24 100.639 107.24C103.519 107.24 106.379 106.4 106.379 104.29C106.379 103.34 105.949 102.361 103.369 101.921L101.289 101.521C98.6489 101.081 92.0789 100.1 92.0789 93.7305C92.0789 86.4505 97.9689 82.3408 106.309 82.3408C114.649 82.3408 119.299 86.3102 116.539 93.4102H109.499C109.749 91.8402 108.659 90.0605 105.099 90.0605C102.149 90.0605 100.259 91.2307 100.259 93.0107C100.259 93.8807 100.729 94.7602 102.739 95.1602L104.259 95.4902C108.039 96.3602 114.769 96.8406 114.769 103.391C114.769 112.091 107.579 114.96 99.4189 114.96C91.2589 114.96 86.1789 112.12 88.6589 103.82H88.6689Z" fill="black"/>
<path d="M145.791 91.7705H136.611L130.441 113.94H121.851L128.021 91.7705H118.621L120.911 83.3604H148.101L145.771 91.7705H145.791Z" fill="black"/>
<path fill-rule="evenodd" clip-rule="evenodd" d="M187.06 106.69C185.63 107.64 181.519 109.741 177.229 110.051C173.879 110.301 170.389 109.111 167.849 107.681L167.159 104.141C170.759 101.881 173.52 97.8105 173.52 92.3105C173.52 86.3405 170.33 83.3906 163.72 83.3906H150.14L141.77 113.971H150.359L152.5 106.11H159.38L160.84 113.971H169.09C169.71 113.931 174.4 113.66 177.71 112.57C181.26 111.41 184.61 109.73 187.47 107.62C190.34 105.5 193.24 102.25 193.24 102.25C193.24 102.25 188.49 105.74 187.07 106.69H187.06ZM160.49 98.6807L154.539 98.7207L156.43 91.7705H161.76C163.78 91.7705 164.77 92.43 164.77 94.46C164.77 97.26 162.35 98.6807 160.49 98.6807Z" fill="black"/>
<path fill-rule="evenodd" clip-rule="evenodd" d="M64.9219 23.7607V65.8506C64.9219 66.3006 65.0419 66.7404 65.2619 67.1104C65.4819 67.4804 65.8019 67.8005 66.2019 68.0205L72.5619 71.5508L78.9219 75.0801V48.0107L91.2119 54.7002L103.502 61.3906V46.3701C103.502 45.9201 103.382 45.4806 103.152 45.1006C102.922 44.7206 102.602 44.4004 102.212 44.1904L83.5719 33.9707L64.9319 23.75L64.9219 23.7607Z" fill="black"/>
<path fill-rule="evenodd" clip-rule="evenodd" d="M143.951 23.7607V44.8105V65.8604C143.951 66.3104 143.831 66.7501 143.611 67.1201C143.391 67.4901 143.071 67.8103 142.671 68.0303L136.311 71.5605L129.951 75.0908V61.5605V48.0303L117.661 54.7207L105.371 61.4102V53.9004V46.3906C105.371 45.9406 105.491 45.5001 105.721 45.1201C105.951 44.7401 106.271 44.42 106.661 44.21L125.301 33.9902L143.941 23.7705L143.951 23.7607Z" fill="black"/>
<path fill-rule="evenodd" clip-rule="evenodd" d="M66.4805 22.2002L75.9705 16.5703L85.4605 10.9404L94.4705 5.60059L103.48 0.260742C103.78 0.0807422 104.11 0 104.44 0C104.77 0 105.101 0.0905078 105.401 0.270508L114.331 5.69043L123.26 11.1104L132.67 16.8203L142.081 22.5303L132.67 17.8604L123.26 13.1904L114.05 8.62012L104.841 4.05078C104.711 3.99078 104.57 3.9502 104.43 3.9502C104.29 3.9502 104.151 3.98004 104.021 4.04004L94.7405 8.53027L85.4605 13.0205L75.9705 17.6104L66.4805 22.2002Z" fill="black"/>
</svg>
