<svg width="243" height="57" viewBox="0 0 243 57" fill="none" xmlns="http://www.w3.org/2000/svg">
<path d="M56.3032 28.7492H44.8832C45.1532 15.6992 31.1232 7.0992 19.6632 13.9592C9.03318 20.3192 9.03318 36.0494 19.6632 42.4094C20.9632 43.1894 24.4832 44.7492 25.8932 44.7492H30.0332L17.7531 31.8996H33.6031L57.3132 55.5998L57.7431 56.4592H41.8932C41.6332 56.4592 39.9932 54.1492 39.3132 54.1692C37.5632 54.6992 35.8632 55.42 34.0532 55.76C5.6032 61.17 -11.8369 26.2397 9.47312 7.18967C27.8631 -9.25033 56.9232 4.42998 56.3132 28.76L56.3032 28.7492Z" fill="black"/>
<path d="M216.815 6.47949V23.8994C219.015 22.3894 221.045 21.2293 223.795 21.0293C240.305 19.8393 243.325 28.4195 242.235 43.1895C241.305 55.8495 228.065 59.8291 218.225 54.0391L216.235 51.8994C216.045 53.1694 216.685 54.9094 215.805 55.8994H207.375V6.48926H216.795L216.815 6.47949ZM221.885 29.3896C218.895 29.8996 217.055 33.2195 216.805 36.0195C216.065 44.6195 217.815 48.9897 227.245 48.1797C230.705 47.8797 232.405 45.9596 232.765 42.5596C233.085 39.6496 233.255 32.9295 231.245 30.7295C229.575 28.8995 224.195 28.9889 221.875 29.3789L221.885 29.3896Z" fill="black"/>
<path d="M204.251 41.8893H179.121C178.971 44.2993 178.982 46.5294 181.392 47.7594C183.342 48.7594 190.191 48.7792 192.251 48.0192C194.181 47.3092 194.522 46.1886 195.262 44.4586H203.831C204.621 44.4586 203.922 47.0385 203.782 47.5485C201.512 55.9185 191.461 56.9189 184.121 56.4489C169.391 55.4989 168.702 45.5786 169.682 33.1686C170.602 21.5386 182.442 20.2187 191.792 21.0787C197.272 21.5787 204.251 26.309 204.251 32.319V41.8893ZM195.111 35.0387C194.971 31.1687 193.532 29.0389 189.552 28.7389C184.252 28.3389 179.021 28.3787 178.831 35.0387H195.111Z" fill="black"/>
<path d="M166.554 41.89H141.424C141.324 44.19 141.204 46.1699 143.324 47.5599C145.184 48.7799 150.144 48.6701 152.424 48.4701C154.874 48.2601 157.104 47.2093 157.124 44.4593H166.264C166.414 55.1793 155.184 56.9601 146.684 56.4701C131.514 55.5801 130.974 45.68 131.974 32.89C132.864 21.57 145.054 20.1795 154.084 21.0795C159.724 21.6395 166.544 26.4697 166.544 32.6097V41.89H166.554ZM157.124 35.0394C157.484 31.2494 155.614 29.0196 151.854 28.7396C146.724 28.3596 141.044 28.4094 141.134 35.0394H157.124Z" fill="black"/>
<path d="M103.432 55.89H94.8619V51.89C91.3219 55.86 87.0319 56.7701 81.8519 56.4701C72.9419 55.9501 69.042 51.58 70.012 42.6C70.552 37.61 75.942 34.8401 80.442 34.4701C84.792 34.1001 90.0419 34.2601 94.0019 36.1801V31.4701C94.0019 30.6501 92.372 29.2798 91.512 29.1098C90.102 28.8198 84.5319 28.8494 83.0019 29.0394C81.2819 29.2494 80.122 30.4498 80.012 32.1898H70.8719C70.8319 25.4098 76.4519 21.5094 82.7119 21.0394C89.1819 20.5494 98.612 20.5194 102.152 27.0394C102.462 27.6094 103.432 29.8495 103.432 30.3295V55.89ZM93.9619 43.0795C93.8919 42.9695 91.992 42.1792 91.672 42.0892C89.622 41.4992 83.4219 41.2493 81.3719 41.6693C78.6219 42.2293 78.4219 46.8701 79.9519 48.1801C81.3119 49.3401 87.102 49.2796 88.892 48.9096C90.792 48.5196 95.2819 45.1995 93.9719 43.0795H93.9619Z" fill="black"/>
<path d="M128.852 30.1797H122.422C119.842 30.1797 115.992 33.9994 115.992 36.6094V56.459H106.992L106.562 56.0293V22.1895H115.412V26.1895C115.872 26.0495 115.962 25.4393 116.392 25.0293C117.832 23.6793 121.312 21.8994 123.262 21.8994H128.402L128.832 22.3291V30.1797H128.852Z" fill="black"/>
<path d="M66.5918 31.8896L51.8818 47.0293L37.1719 31.8896H66.5918Z" fill="black"/>
</svg>
