<svg width="449" height="68" viewBox="0 0 449 68" fill="none" xmlns="http://www.w3.org/2000/svg">
<path d="M435.551 13.8496C434.101 12.3996 433.371 10.6093 433.371 8.48926C433.371 6.36926 434.091 4.57988 435.551 3.12988C437.001 1.67988 438.791 0.949219 440.901 0.949219C443.011 0.949219 444.811 1.67988 446.261 3.12988C447.711 4.57988 448.441 6.36926 448.441 8.48926C448.441 10.6093 447.721 12.3896 446.261 13.8496C444.801 15.3096 443.021 16.0293 440.901 16.0293C438.781 16.0293 437.001 15.2996 435.551 13.8496ZM436.471 3.98926C435.271 5.20926 434.671 6.70926 434.671 8.48926C434.671 10.2693 435.271 11.7693 436.471 12.9893C437.671 14.2093 439.151 14.8096 440.911 14.8096C442.671 14.8096 444.171 14.1993 445.371 12.9893C446.571 11.7793 447.171 10.2793 447.171 8.48926C447.171 6.69926 446.571 5.19926 445.371 3.98926C444.171 2.77926 442.681 2.16992 440.911 2.16992C439.141 2.16992 437.671 2.77926 436.471 3.98926ZM438.001 11.4092C437.211 10.6192 436.811 9.64926 436.811 8.48926C436.811 7.32926 437.211 6.35934 438.001 5.56934C438.801 4.77934 439.791 4.38965 440.971 4.38965C441.821 4.38965 442.581 4.6098 443.251 5.0498C443.921 5.4898 444.411 6.08938 444.741 6.85938L443.441 7.2998C443.231 6.8198 442.911 6.41988 442.471 6.12988C442.031 5.83988 441.531 5.68945 440.981 5.68945C440.201 5.68945 439.551 5.96 439.021 6.5C438.501 7.04 438.231 7.7 438.231 8.5C438.231 9.3 438.491 9.96 439.021 10.5C439.541 11.04 440.201 11.3096 440.981 11.3096C441.541 11.3096 442.041 11.1691 442.471 10.8691C442.911 10.5791 443.241 10.1892 443.441 9.69922L444.741 10.1396C444.421 10.9096 443.931 11.5092 443.251 11.9492C442.581 12.3892 441.821 12.6094 440.971 12.6094C439.781 12.6094 438.791 12.2197 438.001 11.4297V11.4092Z" fill="black"/>
<path d="M32.91 33.5596C38.05 34.0596 42.13 35.7496 45.14 38.6396C48.15 41.5196 49.65 45.1598 49.65 49.5498C49.65 54.4998 47.86 58.6091 44.29 61.8691C40.72 65.1291 36.05 66.7598 30.28 66.7598H0V0.929688H27.46C33.16 0.929688 37.82 2.58918 41.42 5.90918C45.02 9.22918 46.83 13.3395 46.83 18.2295C46.83 22.1795 45.59 25.4992 43.11 28.1992C40.63 30.8992 37.23 32.6796 32.91 33.5596ZM26.61 9.95996H10.15V29.4297H26.61C29.74 29.4297 32.28 28.5092 34.23 26.6592C36.17 24.8092 37.15 22.4694 37.15 19.6494C37.15 16.8294 36.18 14.5095 34.23 12.6895C32.29 10.8695 29.75 9.95996 26.61 9.95996ZM10.15 57.7295H28.68C31.81 57.7295 34.35 56.81 36.3 54.96C38.24 53.11 39.22 50.7692 39.22 47.9492C39.22 45.1292 38.25 42.8093 36.3 40.9893C34.36 39.1693 31.82 38.2598 28.68 38.2598H10.15V57.7295Z" fill="black"/>
<path d="M101.56 66.7598H59.4297V0.929688H101.56V10.2393H69.8697V29.2393H100.62V38.46H69.8697V57.46H101.56V66.7695V66.7598Z" fill="black"/>
<path d="M153.482 66.7598H111.352V0.929688H121.792V57.4492H153.482V66.7598Z" fill="black"/>
<path d="M254.379 64.6895V0.929688H264.719V66.7598H244.499L217.979 3V66.7598H207.539V0.929688H227.759L254.369 64.6895H254.379Z" fill="black"/>
<path d="M285.279 57.9199C278.659 51.3999 275.359 43.3796 275.359 33.8496C275.359 24.3196 278.669 16.2993 285.279 9.7793C291.889 3.2593 300.059 0 309.779 0C316.799 0 323.009 1.83 328.399 5.5C333.789 9.17 337.709 13.6998 340.159 19.0898L330.569 22.8496C328.689 18.8996 325.919 15.6998 322.249 13.2598C318.579 10.8098 314.429 9.58984 309.789 9.58984C303.079 9.58984 297.449 11.9296 292.909 16.5996C288.359 21.2696 286.089 27.0194 286.089 33.8594C286.089 40.6994 288.359 46.4491 292.909 51.1191C297.449 55.7891 303.079 58.1299 309.789 58.1299C314.429 58.1299 318.579 56.91 322.249 54.46C325.919 52.01 328.689 48.8191 330.569 44.8691L340.159 48.6299C337.709 54.0199 333.799 58.5497 328.399 62.2197C323.009 65.8897 316.799 67.7197 309.779 67.7197C300.059 67.7197 291.899 64.4594 285.279 57.9395V57.9199Z" fill="black"/>
<path d="M359.861 57.9199C353.241 51.3999 349.941 43.3796 349.941 33.8496C349.941 24.3196 353.251 16.2993 359.861 9.7793C366.471 3.2593 374.641 0 384.361 0C394.081 0 402.151 3.2593 408.761 9.7793C415.371 16.2993 418.681 24.3296 418.681 33.8496C418.681 43.3696 415.371 51.3999 408.761 57.9199C402.141 64.4399 394.011 67.6992 384.361 67.6992C374.711 67.6992 366.481 64.4399 359.861 57.9199ZM367.481 16.5898C362.931 21.2598 360.661 27.0096 360.661 33.8496C360.661 40.6896 362.931 46.4394 367.481 51.1094C372.021 55.7794 377.651 58.1191 384.361 58.1191C391.071 58.1191 396.681 55.7794 401.191 51.1094C405.701 46.4394 407.961 40.6896 407.961 33.8496C407.961 27.0096 405.701 21.2598 401.191 16.5898C396.681 11.9198 391.061 9.5791 384.361 9.5791C377.661 9.5791 372.021 11.9198 367.481 16.5898Z" fill="black"/>
<path d="M197.76 16.2695L197.45 15.3291C197.41 15.2191 197.38 15.11 197.34 15L196.12 11.2695C195.88 10.5195 195.63 9.75977 195.39 9.00977C195.38 8.96977 195.36 8.91937 195.34 8.85938C191.13 10.2594 187.01 11.8691 183.03 13.8691C183.07 13.5291 183.12 13.1999 183.16 12.8799C183.29 11.8199 183.42 10.7592 183.549 9.69922C183.66 8.72922 183.76 7.7698 183.85 6.7998C183.94 5.8298 184.02 4.85965 184.08 3.88965C184.14 2.89965 184.179 1.91969 184.229 0.929688H176.68C176.69 1.45969 176.689 1.97977 176.729 2.50977C176.789 3.58977 176.86 4.67 176.95 5.75C177.03 6.79 177.13 7.81938 177.22 8.85938C177.3 9.78938 177.4 10.7194 177.49 11.6494C177.56 12.3394 177.63 13.0395 177.7 13.7295C177.7 13.7795 177.7 13.8392 177.72 13.9092C173.87 11.8192 169.779 10.3396 165.669 8.84961C164.869 11.3296 164.07 13.7898 163.27 16.2598C167.49 17.3898 171.74 18.3397 176.04 19.1797C172.91 22.2597 170.18 25.67 167.39 29.04C167.58 29.18 167.749 29.2999 167.919 29.4199C168.849 30.0899 169.78 30.7597 170.71 31.4297L173.65 33.5596L174.89 31.5996C175.62 30.5196 176.309 29.41 176.979 28.29C178.129 26.36 179.21 24.3892 180.26 22.4092C180.28 22.3692 180.31 22.3295 180.34 22.2695C180.4 22.3795 180.46 22.4696 180.51 22.5596C182.24 25.5196 184.02 28.45 185.94 31.29C186.21 31.69 186.49 32.0797 186.76 32.4697L187.46 33.5098L189.72 31.8896C191.03 30.9696 192.34 30.0394 193.64 29.1094C193.67 29.0894 193.7 29.0593 193.74 29.0293C190.9 25.6093 188.08 22.1897 184.78 19.1797C184.98 19.1497 185.169 19.1296 185.359 19.0996C186.179 18.9796 187 18.8693 187.81 18.7393C189.82 18.4093 191.81 17.9795 193.77 17.4395C194.94 17.1195 196.1 16.7592 197.26 16.4092C197.32 16.3892 197.39 16.3794 197.45 16.3594L197.76 16.25V16.2695Z" fill="black"/>
</svg>
