<svg width="550" height="90" viewBox="0 0 550 90" fill="none" xmlns="http://www.w3.org/2000/svg">
<path d="M0.528 88V1.6H25.104C47.76 1.6 56.976 14.4 56.976 43.2C56.976 73.792 47.888 88 24.464 88H0.528ZM20.368 16.832V73.024H24.08C33.296 73.024 36.112 66.496 36.112 42.816C36.112 23.104 33.68 16.832 24.208 16.832H20.368ZM60.801 88V75.456L91.009 17.856H63.105V1.6H112.513V16.064L84.097 71.872H114.305L111.873 88H60.801ZM157.418 69.568H141.546L138.602 88H118.762L135.786 1.6H163.69L180.97 88H160.362L157.418 69.568ZM144.106 52.8H154.73C152.81 40.256 150.89 26.176 149.738 18.24H149.098C148.33 26.56 146.154 40.256 144.106 52.8ZM187.653 1.6H207.493V88H187.653V1.6ZM244.461 52.672H240.237V88H220.653V1.6H249.837C266.477 1.6 274.925 9.92 274.925 25.536C274.925 37.568 269.037 43.072 263.917 45.248C270.573 48.192 273.773 53.824 273.773 66.24V69.184C273.773 78.784 274.157 84.288 274.797 88H255.469C254.445 84.672 254.061 76.992 254.061 68.544V65.6C254.061 55.36 252.013 52.672 244.461 52.672ZM240.237 16.448V37.824H244.845C252.269 37.824 255.085 35.136 255.085 26.688C255.085 19.52 252.653 16.448 246.125 16.448H240.237ZM340.443 38.592V88H325.851C325.467 85.824 325.211 83.648 325.083 81.216C321.371 88 314.971 89.664 308.187 89.664C290.907 89.664 282.971 76.736 282.971 45.376C282.971 11.2 294.875 0.0639954 313.691 0.0639954C338.139 0.0639954 340.059 19.392 340.315 26.176H320.475C320.219 21.952 319.579 15.68 313.051 15.68C305.627 15.68 303.835 25.408 303.835 45.504C303.835 66.368 305.627 74.048 312.795 74.048C318.811 74.048 320.603 69.056 320.603 59.712V54.208H312.155V38.592H340.443ZM385.668 69.568H369.796L366.852 88H347.012L364.036 1.6H391.94L409.22 88H388.612L385.668 69.568ZM372.356 52.8H382.98C381.06 40.256 379.14 26.176 377.988 18.24H377.348C376.58 26.56 374.404 40.256 372.356 52.8ZM468.511 88V60.352C468.511 46.912 468.767 29.12 469.023 18.624H468.383C465.823 36.672 462.239 65.856 458.399 88H442.271C439.327 64.96 435.743 35.904 433.311 18.368H432.671C433.055 28.608 433.439 46.016 433.439 60.992V88H416.031V1.6H443.935C446.751 19.648 449.695 41.408 450.975 53.44H451.359C453.023 40.64 456.223 21.824 459.551 1.6H487.199V88H468.511ZM545.596 35.264V51.392H519.484V72H549.052L546.748 88H500.028V1.6H546.748V17.856H519.484V35.264H545.596Z" fill="black"/>
</svg>
