<svg width="220" height="227" viewBox="0 0 220 227" fill="none" xmlns="http://www.w3.org/2000/svg">
<path d="M9.56001 187.08L0 183.17V0H9.56001V187.08Z" fill="#1D1D1B"/>
<path d="M135.51 218.38L114.75 226.85V14.7603C114.75 7.05034 120.67 0.400102 128.37 0.0201023C136.61 -0.389898 143.44 6.20041 143.44 14.3404V47.8101H133.88V14.5601C133.88 12.0601 132.06 9.83041 129.58 9.59042C126.73 9.31042 124.32 11.5502 124.32 14.3502V211.61L130.17 209.63C132.39 208.88 133.89 206.8 133.89 204.45V81.2799H129.11V71.7203H143.45V207.35C143.45 212.43 140.26 216.55 135.53 218.38H135.51Z" fill="#1D1D1B"/>
<path d="M28.6928 195.051L19.1328 191.091V0H28.6928V195.051Z" fill="#1D1D1B"/>
<path d="M66.93 211L57.37 207.051V14.3506C57.37 11.7106 55.23 9.57031 52.59 9.57031C49.95 9.57031 47.81 11.7106 47.81 14.3506V202.931L38.25 199.011V14.3506C38.25 6.44059 44.68 0.0107422 52.59 0.0107422C60.5 0.0107422 66.93 6.44078 66.93 18.3008V211Z" fill="#1D1D1B"/>
<path d="M86.06 218.931L76.5 215V0H85.81L104.94 55.8604L95.87 58.8906L86.06 29.4707V218.931Z" fill="#1D1D1B"/>
<path d="M105.181 226.851L95.6211 223.021V0H105.181V226.851Z" fill="#1D1D1B"/>
<path d="M181.68 199.21L172.12 203.03V14.3506C172.12 11.7106 169.98 9.57031 167.34 9.57031C164.7 9.57031 162.56 11.7106 162.56 14.3506V207.181L153 211V14.3506C153 6.44059 159.43 0.0107422 167.34 0.0107422C175.25 0.0107422 181.68 6.44059 181.68 14.3506V199.21Z" fill="#1D1D1B"/>
<path d="M200.802 191.16L191.242 195.141V14.3408C191.242 6.43082 197.672 0 205.582 0C213.492 0 219.922 6.43082 219.922 14.3408V66.9307C219.922 74.8407 213.492 81.2705 205.582 81.2705H200.802V191.15V191.16ZM200.802 71.7207H205.582C208.222 71.7207 210.362 69.5804 210.362 66.9404V14.3506C210.362 11.7106 208.222 9.57031 205.582 9.57031C202.942 9.57031 200.802 11.7106 200.802 14.3506V71.7207Z" fill="#1D1D1B"/>
<path d="M23.9013 71.7207H4.78125V81.2803H23.9013V71.7207Z" fill="#1D1D1B"/>
<path d="M62.1512 71.7207H43.0312V81.2803H62.1512V71.7207Z" fill="#1D1D1B"/>
<path d="M176.89 71.7207H157.77V81.2803H176.89V71.7207Z" fill="#1D1D1B"/>
<path d="M210.69 187.04L200.84 77.0908L210.38 76.4707L219.94 183.11L210.69 187.04Z" fill="#1D1D1B"/>
</svg>
