<svg width="369" height="108" viewBox="0 0 369 108" fill="none" xmlns="http://www.w3.org/2000/svg">
<path d="M0.16 108V-1.90735e-06H24.96V87.84H59.2L56.96 108H0.16ZM67.5038 108V-1.90735e-06H92.3038V40.8H111.024V-1.90735e-06H135.984V108H111.024V61.76H92.3038V108H67.5038ZM152.191 -1.90735e-06H176.991V108H152.191V-1.90735e-06ZM259.358 108V73.44C259.358 56.64 259.678 34.4 259.998 21.28H259.198C255.998 43.84 251.518 80.32 246.718 108H226.557C222.878 79.2 218.398 42.88 215.358 20.96H214.558C215.038 33.76 215.518 55.52 215.518 74.24V108H193.758V-1.90735e-06H228.638C232.158 22.56 235.838 49.76 237.438 64.8H237.918C239.998 48.8 243.998 25.28 248.158 -1.90735e-06H282.718V108H259.358ZM339.554 84.96H319.714L316.034 108H291.234L312.514 -1.90735e-06H347.394L368.994 108H343.234L339.554 84.96ZM322.914 64H336.194C333.794 48.32 331.394 30.72 329.954 20.8H329.154C328.194 31.2 325.474 48.32 322.914 64Z" fill="black"/>
</svg>
