<svg width="312" height="125" viewBox="0 0 312 125" fill="none" xmlns="http://www.w3.org/2000/svg">
<g style="mix-blend-mode:multiply">
<path d="M201.662 18.479C201.482 17.129 201.302 15.7694 201.112 14.4194C200.382 11.8294 199.072 9.58916 197.182 7.67916C194.192 4.93916 190.522 3.20944 186.382 3.20944C184.282 3.12944 182.322 3.56877 180.492 4.52877C178.602 5.14877 176.962 6.19893 175.572 7.68893C174.832 8.37893 174.192 9.13944 173.662 9.95944C177.582 11.4794 180.482 14.5288 180.482 14.5288C176.082 12.6588 172.762 11.7192 172.762 11.7192V11.6987C172.622 11.9987 172.502 12.2989 172.402 12.6089C171.442 14.4289 171.012 16.3895 171.082 18.4995C171.262 19.8495 171.442 21.209 171.632 22.559C172.362 25.149 173.672 27.3893 175.562 29.2993C178.552 32.0393 182.222 33.769 186.362 33.769C188.462 33.849 190.422 33.4087 192.252 32.4487C194.142 31.8287 195.782 30.7785 197.172 29.2885C198.662 27.9085 199.712 26.2686 200.332 24.3686C201.292 22.5486 201.732 20.589 201.652 18.479H201.662Z" fill="black"/>
<path d="M139.061 30.5688C141.161 30.6488 143.121 30.2095 144.951 29.2495C146.841 28.6295 148.481 27.5793 149.871 26.0893C151.361 24.7093 152.411 23.0694 153.031 21.1694C153.991 19.3494 154.421 17.3888 154.351 15.2788C154.171 13.9288 153.991 12.5692 153.801 11.2192C153.071 8.6292 151.761 6.38897 149.871 4.47897C146.881 1.73897 143.211 0.00924196 139.071 0.00924196C136.971 -0.070758 135.011 0.368578 133.181 1.32858C131.291 1.94858 129.651 2.99873 128.261 4.48873C126.771 5.86873 125.721 7.50866 125.101 9.40866C124.141 11.2287 123.711 13.1893 123.781 15.2993C123.961 16.6493 124.141 18.0089 124.331 19.3589C125.061 21.9489 126.371 24.1891 128.261 26.0991C131.251 28.8391 134.921 30.5688 139.061 30.5688Z" fill="black"/>
<path d="M21.4501 77.0687C21.3501 70.8787 21.2701 64.6786 22.0901 58.5286C21.9601 59.4786 21.8401 60.4285 21.7101 61.3685C22.2601 57.3285 23.2101 53.3787 24.7801 49.6087C24.4201 50.4587 24.0601 51.3085 23.7001 52.1585C24.8301 49.4785 26.2501 46.9392 28.0201 44.6292L26.3501 46.7884C27.7301 45.0184 29.3001 43.4089 31.0701 42.0189C30.3501 42.5789 29.6301 43.1288 28.9101 43.6888C30.4701 42.4888 32.1801 41.4988 33.9901 40.7288C33.1401 41.0888 32.2901 41.4489 31.4401 41.8089C33.2601 41.0589 35.1501 40.5291 37.1001 40.2591C36.1501 40.3891 35.2001 40.509 34.2601 40.639C35.9601 40.419 37.6601 40.4085 39.3601 40.6185C38.4101 40.4885 37.4601 40.3686 36.5201 40.2386C38.0501 40.4486 39.5401 40.8388 40.9701 41.4388C40.1201 41.0788 39.2701 40.7187 38.4201 40.3587C39.7201 40.9187 40.9301 41.6386 42.0601 42.4886C41.3401 41.9286 40.6201 41.3787 39.9001 40.8187C41.2201 41.8387 42.3801 43.0292 43.4101 44.3392C42.8501 43.6192 42.3001 42.899 41.7401 42.179C43.0901 43.939 44.1601 45.8793 45.0301 47.9193C44.6701 47.0693 44.3101 46.2185 43.9501 45.3685C45.1301 48.2185 45.8901 51.2189 46.3101 54.2689C46.1801 53.3189 46.0601 52.369 45.9301 51.429C47.0401 59.799 45.9301 68.2893 46.9301 76.6693C46.8701 78.1393 47.1801 79.5184 47.8501 80.7884C48.2801 82.1184 49.0201 83.2588 50.0601 84.2288C51.0301 85.2688 52.1801 86.0088 53.5001 86.4388C54.7701 87.1088 56.1501 87.4187 57.6201 87.3587C60.3901 87.2387 63.2501 86.3288 65.1801 84.2288C65.7401 83.5088 66.2901 82.7887 66.8501 82.0687C67.8201 80.3987 68.3001 78.5993 68.3101 76.6693C67.7601 72.0493 67.8401 67.3893 67.8501 62.7493C67.8501 57.5393 67.6001 52.4091 66.7301 47.2591C66.0001 42.9591 64.4801 38.7685 62.4501 34.9085C61.2801 32.6685 59.7301 30.6591 58.1301 28.7191C56.5301 26.7791 54.5501 25.2486 52.5201 23.7786C50.3901 22.2286 47.8501 21.1492 45.3701 20.3392C44.5601 20.0792 43.7401 19.8688 42.9001 19.7288C41.1301 19.4288 39.3201 19.149 37.5301 19.099C32.1301 18.929 26.9501 20.4391 22.1401 22.7591C19.6801 23.9491 17.5101 25.6187 15.4101 27.3587C13.9901 28.5287 12.7001 29.8591 11.5501 31.2991C9.8701 33.3991 8.25006 35.5185 6.95006 37.8685C5.65006 40.2285 4.60007 42.7586 3.65007 45.2786C1.71007 50.4386 0.910082 55.9786 0.410082 61.4486C-0.0599175 66.6386 0.0200849 71.8587 0.100085 77.0687C0.140085 79.8387 1.26009 82.6592 3.23009 84.6292C4.20009 85.6692 5.35009 86.4092 6.67009 86.8392C7.94009 87.5092 9.32009 87.8191 10.7901 87.7591C13.5601 87.6391 16.4201 86.7292 18.3501 84.6292C20.2501 82.5592 21.5301 79.9487 21.4801 77.0687H21.4501Z" fill="black"/>
<path d="M217.7 77.0687C217.6 70.8787 217.52 64.6786 218.34 58.5286C218.21 59.4786 218.09 60.4285 217.96 61.3685C218.51 57.3285 219.46 53.3787 221.03 49.6087C220.67 50.4587 220.31 51.3085 219.95 52.1585C221.08 49.4785 222.5 46.9392 224.27 44.6292C223.71 45.3492 223.16 46.0684 222.6 46.7884C223.98 45.0184 225.55 43.4089 227.32 42.0189C226.6 42.5789 225.88 43.1288 225.16 43.6888C226.72 42.4888 228.43 41.4988 230.24 40.7288C229.39 41.0888 228.54 41.4489 227.69 41.8089C229.51 41.0589 231.4 40.5291 233.35 40.2591C232.4 40.3891 231.45 40.509 230.51 40.639C232.21 40.419 233.91 40.4085 235.61 40.6185C234.66 40.4885 233.71 40.3686 232.77 40.2386C234.3 40.4486 235.79 40.8388 237.22 41.4388C236.37 41.0788 235.52 40.7187 234.67 40.3587C235.97 40.9187 237.18 41.6386 238.31 42.4886C237.59 41.9286 236.87 41.3787 236.15 40.8187C237.47 41.8387 238.63 43.0292 239.66 44.3392C239.1 43.6192 238.55 42.899 237.99 42.179C239.34 43.939 240.41 45.8793 241.28 47.9193C240.92 47.0693 240.56 46.2185 240.2 45.3685C241.38 48.2185 242.14 51.2189 242.56 54.2689C242.43 53.3189 242.31 52.369 242.18 51.429C243.29 59.799 242.18 68.2893 243.18 76.6693C243.12 78.1393 243.43 79.5184 244.1 80.7884C244.53 82.1184 245.27 83.2588 246.31 84.2288C247.28 85.2688 248.43 86.0088 249.75 86.4388C251.02 87.1088 252.4 87.4187 253.87 87.3587C256.64 87.2387 259.5 86.3288 261.43 84.2288C261.99 83.5088 262.54 82.7887 263.1 82.0687C264.07 80.3987 264.55 78.5993 264.56 76.6693C264.01 72.0493 264.09 67.3893 264.1 62.7493C264.1 57.5393 263.85 52.4091 262.98 47.2591C262.25 42.9591 260.73 38.7685 258.7 34.9085C257.53 32.6685 255.98 30.6591 254.38 28.7191C252.78 26.7791 250.8 25.2486 248.77 23.7786C246.64 22.2286 244.1 21.1492 241.62 20.3392C240.81 20.0792 239.99 19.8688 239.15 19.7288C237.38 19.4288 235.57 19.149 233.78 19.099C228.38 18.929 223.2 20.4391 218.39 22.7591C215.93 23.9491 213.76 25.6187 211.66 27.3587C210.24 28.5287 208.95 29.8591 207.8 31.2991C206.12 33.3991 204.5 35.5185 203.2 37.8685C201.9 40.2285 200.85 42.7586 199.9 45.2786C197.96 50.4386 197.16 55.9786 196.66 61.4486C196.19 66.6386 196.27 71.8587 196.35 77.0687C196.39 79.8387 197.51 82.6592 199.48 84.6292C200.45 85.6692 201.6 86.4092 202.92 86.8392C204.19 87.5092 205.57 87.8191 207.04 87.7591C209.81 87.6391 212.67 86.7292 214.6 84.6292C216.5 82.5592 217.78 79.9487 217.73 77.0687H217.7Z" fill="black"/>
<path d="M264.591 77.0687C264.491 70.8787 264.411 64.6786 265.231 58.5286C265.101 59.4786 264.981 60.4285 264.851 61.3685C265.401 57.3285 266.351 53.3787 267.921 49.6087C267.561 50.4587 267.201 51.3085 266.841 52.1585C267.971 49.4785 269.391 46.9392 271.161 44.6292C270.601 45.3492 270.051 46.0684 269.491 46.7884C270.871 45.0184 272.441 43.4089 274.211 42.0189C273.491 42.5789 272.771 43.1288 272.051 43.6888C273.611 42.4888 275.321 41.4988 277.131 40.7288C276.281 41.0888 275.431 41.4489 274.581 41.8089C276.401 41.0589 278.291 40.5291 280.241 40.2591C279.291 40.3891 278.341 40.509 277.401 40.639C279.101 40.419 280.801 40.4085 282.501 40.6185C281.551 40.4885 280.601 40.3686 279.661 40.2386C281.191 40.4486 282.681 40.8388 284.111 41.4388C283.261 41.0788 282.411 40.7187 281.561 40.3587C282.861 40.9187 284.071 41.6386 285.201 42.4886C284.481 41.9286 283.761 41.3787 283.041 40.8187C284.361 41.8387 285.521 43.0292 286.551 44.3392C285.991 43.6192 285.441 42.899 284.881 42.179C286.231 43.939 287.301 45.8793 288.171 47.9193C287.811 47.0693 287.451 46.2185 287.091 45.3685C288.271 48.2185 289.031 51.2189 289.451 54.2689C289.321 53.3189 289.201 52.369 289.071 51.429C290.181 59.799 289.071 68.2893 290.071 76.6693C290.011 78.1393 290.321 79.5184 290.991 80.7884C291.421 82.1184 292.161 83.2588 293.201 84.2288C294.171 85.2688 295.321 86.0088 296.641 86.4388C297.911 87.1088 299.291 87.4187 300.761 87.3587C303.531 87.2387 306.391 86.3288 308.321 84.2288C308.881 83.5088 309.431 82.7887 309.991 82.0687C310.961 80.3987 311.441 78.5993 311.451 76.6693C310.901 72.0493 310.981 67.3893 310.991 62.7493C310.991 57.5393 310.741 52.4091 309.871 47.2591C309.141 42.9591 307.621 38.7685 305.591 34.9085C304.421 32.6685 302.871 30.6591 301.271 28.7191C299.671 26.7791 297.691 25.2486 295.661 23.7786C293.531 22.2286 290.991 21.1492 288.511 20.3392C287.701 20.0792 286.881 19.8688 286.041 19.7288C284.271 19.4288 282.461 19.149 280.671 19.099C275.271 18.929 270.091 20.4391 265.281 22.7591C262.821 23.9491 260.651 25.6187 258.551 27.3587C257.131 28.5287 255.841 29.8591 254.691 31.2991C253.011 33.3991 251.391 35.5185 250.091 37.8685C248.791 40.2285 247.741 42.7586 246.791 45.2786C244.851 50.4386 244.051 55.9786 243.551 61.4486C243.081 66.6386 243.161 71.8587 243.241 77.0687C243.281 79.8387 244.401 82.6592 246.371 84.6292C247.341 85.6692 248.491 86.4092 249.811 86.8392C251.081 87.5092 252.461 87.8191 253.931 87.7591C256.701 87.6391 259.561 86.7292 261.491 84.6292C263.391 82.5592 264.671 79.9487 264.621 77.0687H264.591Z" fill="black"/>
<path d="M99.4384 87.1088C91.0784 87.4188 82.4083 85.3087 75.9083 81.2787C63.5483 73.6287 59.4783 63.1487 62.5183 50.4887C65.4883 38.1587 75.7083 24.0485 90.8483 21.1185C91.8183 20.9285 92.7983 20.7994 93.7783 20.7094C108.008 19.4294 122.548 26.4094 128.848 37.4594C131.798 42.6394 133.008 48.5092 132.528 54.2592C132.028 60.3192 129.858 65.8894 126.588 71.2094C123.428 76.3294 119.958 80.6493 113.998 83.6293C109.658 85.7993 104.608 86.9185 99.4483 87.1185L99.4384 87.1088ZM111.358 51.1889C110.918 48.2589 109.568 45.4693 107.188 43.1293C104.218 40.2193 99.3083 38.3688 94.8283 39.8988C89.3083 41.7888 85.8583 46.0289 83.9483 50.4789C82.1783 54.5789 81.7183 61.0788 85.1483 64.6488C88.1183 67.7488 93.1983 68.9191 97.9483 68.9291C101.908 68.9291 105.398 67.4787 107.678 64.7387C110.958 60.7987 112.078 55.9889 111.358 51.1889Z" fill="black"/>
<path d="M161.739 97.8891C150.669 98.2991 139.188 95.4994 130.578 90.1694C114.208 80.0494 108.819 66.1589 112.849 49.3989C116.779 33.0689 130.309 14.3892 150.369 10.5092C151.649 10.2592 152.949 10.0794 154.249 9.95943C173.089 8.25943 192.349 17.5091 200.679 32.1391C204.589 38.9991 206.179 46.7693 205.549 54.3793C204.879 62.3993 202.019 69.7788 197.679 76.8188C193.499 83.5988 188.899 89.319 180.999 93.269C175.249 96.149 168.569 97.6291 161.729 97.8891H161.739ZM182.229 49.3491C181.509 44.5091 179.268 39.8888 175.338 36.0288C170.428 31.2188 162.309 28.1589 154.909 30.6889C145.789 33.8089 140.089 40.8292 136.919 48.1792C133.999 54.9692 133.228 65.6991 138.898 71.5991C143.818 76.7191 152.199 78.6494 160.059 78.6694C166.609 78.6894 172.378 76.2695 176.148 71.7495C181.578 65.2295 183.419 57.2791 182.239 49.3491H182.229Z" fill="black"/>
<path d="M0.509949 123.988C0.169949 123.648 0 123.208 0 122.658V104.698H8.37C10.05 104.698 11.4 105.098 12.43 105.898C13.46 106.698 13.97 107.758 13.97 109.078V110.578C13.97 111.278 13.81 111.938 13.49 112.568C13.17 113.198 12.73 113.708 12.16 114.078V114.108C13.08 114.358 13.82 114.828 14.38 115.538C14.94 116.248 15.21 117.069 15.21 118.009V119.368C15.21 120.918 14.72 122.159 13.74 123.089C12.76 124.019 11.43 124.488 9.75 124.488H1.82996C1.27996 124.488 0.84 124.319 0.5 123.979L0.509949 123.988ZM8.94 113.639C9.83 113.639 10.54 113.359 11.08 112.809C11.62 112.249 11.89 111.509 11.89 110.589V109.089C11.89 108.339 11.56 107.729 10.91 107.269C10.26 106.809 9.41 106.578 8.38 106.578H2.09998V113.648H8.94V113.639ZM9.47998 122.629C10.61 122.629 11.5 122.328 12.15 121.738C12.8 121.148 13.13 120.359 13.13 119.379V118.019C13.13 117.229 12.85 116.588 12.28 116.108C11.71 115.628 10.97 115.389 10.05 115.389H2.09998V122.629H9.47998Z" fill="black"/>
<path d="M54.2216 119.009H45.5416L43.5016 124.499H41.3516L48.9615 104.698H49.9216C50.5416 104.698 50.9916 105.078 51.2816 105.828L55.6415 117.259H55.6716V117.318L58.4116 124.499H56.2615L54.2216 119.009ZM46.1916 117.259H53.5716L49.8915 107.419H49.8616L46.1816 117.259H46.1916Z" fill="black"/>
<path d="M86.2405 123.988C85.9005 123.648 85.7305 123.208 85.7305 122.658V104.698H94.1005C95.7805 104.698 97.1305 105.098 98.1605 105.898C99.1905 106.698 99.7004 107.758 99.7004 109.078V110.578C99.7004 111.278 99.5405 111.938 99.2205 112.568C98.9005 113.198 98.4604 113.708 97.8904 114.078V114.108C98.8104 114.358 99.5505 114.828 100.11 115.538C100.67 116.248 100.94 117.069 100.94 118.009V119.368C100.94 120.918 100.45 122.159 99.4705 123.089C98.4905 124.019 97.1605 124.488 95.4805 124.488H87.5605C87.0105 124.488 86.5705 124.319 86.2305 123.979L86.2405 123.988ZM94.6705 113.639C95.5605 113.639 96.2705 113.359 96.8105 112.809C97.3505 112.249 97.6205 111.509 97.6205 110.589V109.089C97.6205 108.339 97.2904 107.729 96.6404 107.269C95.9904 106.809 95.1405 106.578 94.1105 106.578H87.8304V113.648H94.6705V113.639ZM95.2104 122.629C96.3404 122.629 97.2305 122.328 97.8805 121.738C98.5305 121.148 98.8605 120.359 98.8605 119.379V118.019C98.8605 117.229 98.5804 116.588 98.0104 116.108C97.4404 115.628 96.7005 115.389 95.7805 115.389H87.8304V122.629H95.2104Z" fill="black"/>
<path d="M133.652 116.889L126.352 104.698H128.612L134.692 114.999L140.772 104.698H143.032L135.732 116.889V124.499H133.642V116.889H133.652Z" fill="black"/>
<path d="M172.019 123.818C171.049 123.218 170.289 122.368 169.759 121.288C169.219 120.208 168.949 118.958 168.949 117.538V111.658C168.949 110.248 169.219 108.988 169.759 107.898C170.299 106.808 171.059 105.958 172.049 105.368C173.039 104.778 174.189 104.479 175.489 104.479H178.489C179.719 104.479 180.799 104.739 181.729 105.269C182.659 105.799 183.389 106.539 183.909 107.499C184.429 108.459 184.689 109.559 184.689 110.809H182.649C182.649 109.469 182.269 108.388 181.499 107.568C180.739 106.748 179.729 106.339 178.489 106.339H175.489C174.149 106.339 173.079 106.829 172.269 107.799C171.459 108.769 171.049 110.058 171.049 111.658V117.538C171.049 119.138 171.449 120.428 172.239 121.398C173.029 122.368 174.079 122.858 175.379 122.858H178.429C179.709 122.858 180.739 122.409 181.529 121.499C182.309 120.599 182.699 119.408 182.699 117.938H184.739C184.739 119.278 184.479 120.458 183.949 121.488C183.419 122.518 182.679 123.309 181.729 123.879C180.779 124.449 179.679 124.729 178.429 124.729H175.379C174.119 124.729 172.999 124.428 172.029 123.818H172.019Z" fill="black"/>
<path d="M223.448 119.009H214.768L212.728 124.499H210.578L218.188 104.698H219.148C219.768 104.698 220.218 105.078 220.508 105.828L224.868 117.259H224.898V117.318L227.638 124.499H225.488L223.448 119.009ZM215.418 117.259H222.798L219.118 107.419H219.088L215.408 117.259H215.418Z" fill="black"/>
<path d="M255.129 104.698H264.749C266.199 104.698 267.369 105.109 268.239 105.929C269.119 106.749 269.549 107.829 269.549 109.169V111.229C269.549 112.229 269.229 113.108 268.589 113.868C267.949 114.628 267.089 115.179 266.019 115.499V115.528C266.589 115.828 267.099 116.309 267.559 116.969C268.019 117.629 268.369 118.378 268.619 119.198L270.179 124.488H268.029L266.469 119.198C266.209 118.278 265.749 117.529 265.099 116.969C264.449 116.409 263.739 116.118 262.959 116.118H257.219V124.488H255.129V104.688V104.698ZM264.009 114.259C265.049 114.259 265.879 113.979 266.509 113.429C267.139 112.869 267.459 112.138 267.459 111.238V109.059C267.459 108.309 267.209 107.699 266.699 107.249C266.189 106.799 265.519 106.568 264.689 106.568H257.219V114.259H264.009Z" fill="black"/>
<path d="M298.609 123.999C298.289 123.669 298.129 123.209 298.129 122.629V104.698H311.419V106.509H300.219V113.469H310.569V115.278H300.219V122.688H311.419V124.499H299.959C299.379 124.499 298.919 124.339 298.599 123.999H298.609Z" fill="black"/>
</g>
</svg>
