<svg width="459" height="96" viewBox="0 0 459 96" fill="none" xmlns="http://www.w3.org/2000/svg">
<path d="M7.34998 34.0498C12.22 29.4898 18.3701 27.2002 25.8101 27.2002C33.2501 27.2002 39.7 29.4703 44.63 34.0303C49.55 38.5803 52.02 44.3799 52.02 51.4199C52.02 58.4599 49.56 64.1407 44.65 68.7207C39.74 73.3007 33.53 75.5898 26.03 75.5898C18.53 75.5898 12.28 73.3002 7.37 68.7402C2.46 64.1802 0 58.4307 0 51.5107C0 44.5907 2.44998 38.6498 7.34998 34.0498ZM16.74 51.4199C16.74 54.1699 17.62 56.4703 19.39 58.3203C21.16 60.1603 23.38 61.0898 26.03 61.0898C28.68 61.0898 30.79 60.1703 32.52 58.3203C34.24 56.4803 35.1 54.1799 35.1 51.4199C35.1 48.6599 34.24 46.33 32.52 44.5C30.8 42.67 28.63 41.7607 26.03 41.7607C23.43 41.7607 21.16 42.6803 19.39 44.5303C17.62 46.3703 16.74 48.6707 16.74 51.4307V51.4199Z" fill="black"/>
<path d="M63.6217 28.9707L70.3317 47.9307C71.4217 51.2307 72.1317 54.4498 72.4617 57.5898C72.9117 54.9598 73.6217 51.7407 74.5917 47.9307L80.0817 28.9707H93.5518L99.3118 47.9307C99.9718 50.3507 100.662 53.5698 101.352 57.5898V55.0498C101.352 52.8698 101.802 50.5007 102.712 47.9307L110.152 28.9707H129.112L109.792 74.0107H94.8218L89.0618 56.5498C88.7918 55.5498 88.4918 54.5407 88.1818 53.5107C87.8618 52.4807 87.6618 51.7907 87.5718 51.4307C87.4818 51.0707 87.3817 50.5298 87.2717 49.7998C87.1617 49.0698 87.0518 48.1004 86.9318 46.9004C86.2418 50.8904 85.8417 53.0198 85.7517 53.2998L78.8517 74.0303H64.7417L45.5117 28.9902H63.6117L63.6217 28.9707Z" fill="black"/>
<path d="M124.52 74.0107V28.9707H141.53L141.17 36.0898C144.8 30.5898 149.649 27.8398 155.729 27.8398C160.689 27.8398 164.559 29.3203 167.339 32.2803C170.119 35.2403 171.51 39.5798 171.51 45.2998V74.0107H154.32V50.2402C154.32 44.8602 152.369 42.1699 148.469 42.1699C146.289 42.1699 144.64 42.8703 143.5 44.2803C142.37 45.6903 141.8 47.7001 141.8 50.3301V74H124.52V74.0107Z" fill="black"/>
<path d="M177.58 34.46C181.51 29.92 186.36 27.6602 192.14 27.6602C195.1 27.6602 197.82 28.2805 200.3 29.5205C202.78 30.7605 204.79 32.5002 206.33 34.7402V0H223.52V74.0205H206.96V66.9502C205.42 69.5802 203.33 71.6103 200.7 73.0303C198.07 74.4503 195.09 75.1602 191.77 75.1602C186.05 75.1602 181.28 72.8904 177.44 68.3604C173.6 63.8204 171.68 58.2203 171.68 51.5303C171.68 44.8403 173.64 39.0405 177.58 34.4805V34.46ZM188.87 51.3301C188.87 54.1401 189.73 56.4703 191.45 58.3203C193.17 60.1603 195.35 61.0898 197.98 61.0898C200.61 61.0898 202.78 60.1598 204.49 58.2998C206.2 56.4398 207.05 54.0902 207.05 51.2402C207.05 48.3902 206.2 46.0605 204.51 44.2305C202.82 42.4005 200.64 41.4902 197.98 41.4902C195.32 41.4902 193.25 42.4303 191.49 44.3203C189.74 46.2103 188.86 48.5501 188.86 51.3301H188.87Z" fill="black"/>
<path d="M223.602 51.8301C223.602 44.6001 225.942 38.6607 230.632 34.0107C235.322 29.3507 241.302 27.0205 248.592 27.0205C255.882 27.0205 262.122 29.4107 266.602 34.1807C271.072 38.9607 273.312 45.3504 273.312 53.3604V54.8506H240.522C240.672 57.8506 241.462 60.16 242.882 61.79C244.302 63.42 246.302 64.2402 248.862 64.2402C252.492 64.2402 255.182 62.4398 256.932 58.8398L272.172 61.6504C270.352 66.0904 267.422 69.5402 263.352 71.9902C259.282 74.4402 254.512 75.6602 249.042 75.6602C241.362 75.6602 235.202 73.4799 230.562 69.1299C225.922 64.7799 223.602 59.0005 223.602 51.8105V51.8301ZM240.702 46.7998H256.392C256.332 44.0498 255.632 41.9004 254.312 40.3604C252.982 38.8104 251.142 38.0498 248.782 38.0498C246.422 38.0498 244.532 38.8507 243.092 40.4307C241.652 42.0207 240.862 44.1398 240.712 46.7998H240.702Z" fill="black"/>
<path d="M272.801 74.0107V28.9707H289.811L289.451 36.0898C293.081 30.5898 297.931 27.8398 304.011 27.8398C308.971 27.8398 312.841 29.3203 315.621 32.2803C318.401 35.2403 319.791 39.5798 319.791 45.2998V74.0107H302.601V50.2402C302.601 44.8602 300.651 42.1699 296.751 42.1699C294.571 42.1699 292.921 42.8703 291.781 44.2803C290.651 45.6903 290.081 47.7001 290.081 50.3301V74H272.801V74.0107Z" fill="black"/>
<path d="M323.05 28.9707V13.8203H340.24V28.8799H348.22V42.6201H340.24V53.7803C340.3 58.3803 341.89 60.6807 345 60.6807H345.14C346.17 60.6807 347.29 60.3507 348.5 59.6807V74.1904C345.24 74.9704 342.48 75.3701 340.25 75.3701H339.93C334.52 75.3701 330.34 73.8302 327.41 70.7402C324.48 67.6502 323.01 63.0602 323.01 56.9502L323.06 51.2803V42.8906H317.75V28.9707H323.06H323.05Z" fill="black"/>
<path d="M367.829 28.9707V13.8203H385.02V28.8799H393V42.6201H385.02V53.7803C385.08 58.3803 386.67 60.6807 389.79 60.6807H389.93C390.96 60.6807 392.08 60.3507 393.28 59.6807V74.1904C390.02 74.9704 387.26 75.3701 385.03 75.3701H384.709C379.299 75.3701 375.12 73.8302 372.19 70.7402C369.26 67.6502 367.79 63.0602 367.79 56.9502L367.829 51.2803V42.8906H362.52V28.9707H367.829Z" fill="black"/>
<path d="M402.891 28.9707L410.051 48.2002C410.661 49.9002 411.091 51.3904 411.351 52.6904C411.611 53.9904 411.821 55.7104 412.011 57.8604C412.131 55.8004 412.321 54.1907 412.581 53.0107C412.841 51.8307 413.291 50.2302 413.971 48.2002L420.821 28.9707H439.061L410.711 95.1904H392.211L403.641 70.3799L384.051 28.9707H402.921H402.911H402.891Z" fill="black"/>
<path d="M447.401 74.0107C453.681 74.0107 458.771 68.9206 458.771 62.6406C458.771 56.3606 453.681 51.2705 447.401 51.2705C441.121 51.2705 436.031 56.3606 436.031 62.6406C436.031 68.9206 441.121 74.0107 447.401 74.0107Z" fill="black"/>
<path d="M345.889 14.1904C345.889 11.6204 346.879 9.41031 348.859 7.57031C350.839 5.73031 353.209 4.7998 355.959 4.7998C358.709 4.7998 361.109 5.72031 363.049 7.57031C364.999 9.41031 365.979 11.6204 365.979 14.1904C365.979 16.7604 365.009 18.9507 363.049 20.7607C361.099 22.5807 358.729 23.4805 355.959 23.4805C353.189 23.4805 350.849 22.5807 348.879 20.7607C346.889 18.9407 345.879 16.7504 345.879 14.1904H345.889Z" fill="black"/>
<path d="M347.352 74.0107V28.9707H364.542V74.0107H347.352Z" fill="black"/>
</svg>
