<svg width="342" height="94" viewBox="0 0 342 94" fill="none" xmlns="http://www.w3.org/2000/svg">
<path d="M338.187 0L341.807 21.0801C341.777 21.3001 341.207 21.3496 341.027 21.3896C334.427 22.8296 325.597 23.4897 318.757 24.1797C284.187 27.6497 248.487 27.5696 213.867 24.5996C210.007 24.2696 206.137 23.7901 202.297 23.3301L202.087 48.2695C202.077 48.7695 201.877 49.2393 201.857 49.7393C201.607 58.0393 201.307 66.2993 200.587 74.5693C200.127 79.8493 199.407 85.1099 198.887 90.3799L179.867 87.1992C184.397 65.6192 186.947 43.6396 188.477 21.6396L170.867 19.0801L172.967 5.39941L195.807 7.63965L213.637 8.70996C217.327 8.77996 221.007 8.81941 224.697 8.89941C256.617 9.63941 288.447 8.03941 319.997 3.14941C326.077 2.20941 332.127 1.04 338.187 0Z" fill="black"/>
<path d="M48.5367 31.1702L41.2467 33.5403C37.8167 27.3603 26.6467 22.3396 21.4767 29.0696C14.5767 38.0596 30.8867 44.8102 36.6467 48.5002C46.7467 54.9702 55.6667 64.8103 52.6567 77.8303C48.1167 97.5103 18.4867 97.5096 6.29672 85.6096C0.026722 79.4896 -1.47329 69.9603 1.40671 61.8303L10.3368 62.05C11.6268 65.17 12.5667 69.5595 14.9967 72.0295C18.7667 75.8495 31.8467 77.6203 36.5567 75.5403C40.4067 73.8303 39.3667 68.0496 37.6767 65.0696C31.1767 53.6396 13.7867 53.87 6.49667 42.97C-0.293327 32.82 3.90676 19.7401 14.0868 13.8401C28.2568 5.62008 46.8167 15.0202 48.5367 31.1702Z" fill="black"/>
<path d="M72.5577 48.1592L78.9277 43.5996C84.5277 40.4296 91.1877 40.8995 95.2477 46.1895C98.5377 50.4695 98.6077 59.9797 99.3477 65.4297C100.568 74.4497 101.938 83.4598 102.928 92.5098L84.6677 93.5693L84.5577 53.25L82.8877 53.71L72.7577 58.9092L72.5577 75.8496L71.4877 93.9795L54.0977 92.0498C54.7077 85.5898 55.5077 79.1392 55.9777 72.6592C57.1977 56.0292 57.5277 39.2696 57.2477 22.5996C57.1977 19.4496 57.4577 16.2694 57.0477 13.1494L70.5377 12.3496L70.8177 12.6396L72.5477 48.1396L72.5577 48.1592Z" fill="black"/>
<path d="M228.839 70.439C230.509 74.049 233.368 77.8989 237.658 78.2789C244.518 78.8989 251.178 74.5194 255.918 70.0094L265.998 82.8394C256.808 88.8994 245.178 93.5989 234.018 90.8189C224.588 88.4789 217.609 79.1194 216.089 69.7994C215.159 69.7594 209.238 68.8995 209.148 68.4195L209.978 59.6295L215.798 58.9791C217.098 48.4791 224.018 37.0097 234.578 33.8297C243.868 31.0297 253.548 35.8888 258.958 43.4088C264.368 50.9288 263.538 59.3394 255.528 64.0894C247.828 68.6594 237.618 69.7095 228.848 70.4195L228.839 70.439ZM229.478 56.859C234.848 55.729 240.268 54.3495 245.188 51.8795C243.828 50.3895 241.428 48.5295 239.348 48.3795C235.368 48.0995 230.588 53.269 229.478 56.859Z" fill="black"/>
<path d="M320.985 79.9795L305.595 86.3496L303.355 78.71L300.025 81C287.595 88.25 273.145 82.7793 269.445 68.7793C264.675 50.7093 280.105 32.0598 298.895 40.0898L299.115 35.0098L307.815 34.6699L309.785 47.1396C312.185 58.4896 315.615 69.6797 320.975 79.9697L320.985 79.9795ZM287.185 50.3398C276.695 51.5898 273.875 72.4192 286.265 73.4092C300.455 74.5392 301.585 48.6198 287.185 50.3398Z" fill="black"/>
<path d="M142.838 39.8896C144.388 55.5596 148.718 71.0001 155.698 85.0801L140.608 91.6494L138.168 83.8096C128.428 92.3296 113.108 91.23 106.498 79.5C96.2479 61.33 112.618 36.0192 133.708 45.4092L133.918 40.1094L142.838 39.8994V39.8896ZM121.558 55.6396C112.368 56.9596 108.478 75.8095 120.078 78.4395C134.528 81.7095 137.538 53.3396 121.558 55.6396Z" fill="black"/>
<path d="M165.556 40.5195C165.536 41.6895 165.576 42.8593 165.556 44.0293C165.486 49.3593 165.616 54.7796 166.186 60.1396C167.046 68.1796 168.816 76.0791 170.836 83.8691L157.686 86.9795C157.446 85.0995 157.096 83.2201 156.866 81.3301C155.166 67.5801 155.506 53.5696 157.696 39.8896L165.546 40.5098L165.556 40.5195Z" fill="black"/>
<path d="M159.615 29.71L158.025 36.9199C156.155 35.8999 154.205 35.0493 152.505 33.7393C144.815 27.7993 146.205 18.2498 151.245 11.0498C156.295 14.2798 163.746 14.2092 166.446 20.4492C168.276 24.6692 167.715 30.3599 164.816 33.9199L159.615 29.7197V29.71Z" fill="black"/>
</svg>
