<svg width="249" height="98" viewBox="0 0 249 98" fill="none" xmlns="http://www.w3.org/2000/svg">
<path d="M180.266 21.7676V47.3477L182.166 42.3369C188.506 30.2669 206.466 29.5371 214.226 40.5771C215.986 38.4371 217.796 36.4867 220.246 35.1367C234.196 27.4667 251.946 38.8172 247.286 55.1172C243.806 67.2972 227.276 71.1668 217.756 63.5068C217.026 62.9168 214.336 59.6875 213.926 59.6875C206.296 70.9175 187.366 69.8175 181.766 57.1475L180.256 52.9268V66.7471H168.786V62.3369C166.776 64.1069 165.256 66.0169 162.556 66.8369C156.256 68.7469 149.596 65.7475 146.396 60.1875L144.096 54.9873V66.7471H132.926V63.5176C131.446 64.0476 130.516 65.2475 129.066 65.9775C121.346 69.8675 111.256 65.9977 111.786 56.3477C112.366 45.9177 125.366 45.3768 132.916 47.9268C132.966 39.1668 122.476 41.8175 117.026 43.3975L114.726 36.2373C114.626 35.8873 114.696 35.6668 114.966 35.4268C115.416 35.0068 118.796 34.0875 119.616 33.8975C129.646 31.6675 143.496 32.4874 144.086 45.5674L145.596 41.6367C149.806 31.9667 161.456 29.6371 168.786 37.3271V21.7471H180.256L180.266 21.7676ZM161.076 42.417C152.526 43.737 153.586 58.9674 163.336 57.6074C171.846 56.4274 170.526 40.967 161.076 42.417ZM198.426 42.4268C188.736 42.6268 189.526 58.6367 199.526 57.6367C208.376 56.7567 207.496 42.2368 198.426 42.4268ZM229.566 42.4668C219.786 42.6068 220.596 58.6875 230.696 57.6475C239.296 56.7575 238.666 42.3468 229.566 42.4668ZM132.896 52.9668C129.836 51.9968 123.516 51.3968 122.956 55.7568C122.356 60.4068 127.856 61.2774 130.966 59.0674C132.956 57.6474 133.126 55.2368 132.896 52.9668Z" fill="black"/>
<path d="M56.9854 0.0771888C63.4454 -1.04281 61.8554 10.3373 62.0454 13.9873C62.7554 27.4173 63.5854 45.2568 82.1554 36.7168C87.8054 34.1268 102.815 24.8576 108.075 24.9776C111.685 25.0576 112.405 28.7272 111.125 31.5772C106.655 41.5472 81.0954 44.1268 97.9254 58.9668C105.635 65.7668 115.085 70.1068 122.485 77.9268C126.455 82.1168 131.845 88.3077 123.505 91.5977C115.635 94.7077 104.275 85.9574 98.2554 81.2774C93.1554 77.3174 88.1154 71.8574 83.0354 68.2774C80.1354 66.2274 76.0354 64.3671 73.4054 67.9571C71.0954 71.1071 69.0654 85.1677 67.5654 90.0577C66.6254 93.1177 64.5654 98.7874 60.3854 96.5274C57.2754 94.8474 55.4354 86.7269 54.5054 83.2969C48.9054 62.6569 45.2754 28.6769 51.6254 8.25688C52.4454 5.61688 53.8554 0.636954 56.9854 0.0869544V0.0771888Z" fill="black"/>
<path d="M19.9573 28.9072C36.6573 27.2072 50.4472 40.9475 45.2872 57.7675C39.5172 76.5375 12.0972 78.8476 2.72716 61.8476C-4.90284 48.0076 4.31726 30.5072 19.9573 28.9072ZM21.4172 39.4872C7.73722 41.2472 9.39718 64.5376 25.1272 62.5976C38.1972 60.9876 36.9672 37.4872 21.4172 39.4872Z" fill="black"/>
</svg>
