<svg width="357" height="80" viewBox="0 0 357 80" fill="none" xmlns="http://www.w3.org/2000/svg">
<path d="M139.659 23.9117C139.949 24.1717 141.059 25.4015 141.279 25.7115C141.759 26.4015 142.179 28.5019 143.139 28.4019C144.289 27.7319 145.129 26.4711 146.149 25.6011C158.669 14.8111 177.439 15.8616 188.619 28.0816C189.669 29.2316 190.749 30.4014 191.329 31.8814C193.639 32.4214 192.549 29.982 192.559 28.692C192.619 23.762 192.729 18.7811 192.759 13.8111C192.759 11.9211 192.419 9.31126 193.019 7.47126C195.239 0.661255 204.549 -1.40894 209.399 4.02106C213.219 8.30106 211.439 13.5516 211.799 18.7916C211.949 20.9216 213.249 19.6911 214.449 19.3511C217.409 18.5411 218.869 18.6113 221.859 18.4713C233.349 17.9513 244.949 18.3813 256.429 18.4713C264.009 18.5313 272.389 17.9717 279.849 18.4517C287.429 18.9417 296.619 25.2515 300.739 31.5015C301.099 32.0415 301.799 33.7813 301.989 33.9713C302.729 34.7413 303.239 33.7715 303.269 33.0015C303.529 26.4115 302.609 19.1113 303.129 12.5513C303.829 3.73133 315.959 0.82149 320.949 8.21149C323.309 11.7015 321.839 13.8513 322.409 17.3013C322.479 17.7213 322.679 18.0911 323.019 18.3511C328.019 18.7911 333.279 18.122 338.249 18.442C345.139 18.892 349.719 25.8513 346.729 32.3013C342.759 40.8513 330.999 36.6915 323.529 37.6715C322.729 37.7815 322.479 38.2611 322.399 39.0211C322.159 41.1011 322.099 48.4212 322.419 50.3912C322.619 51.6212 323.899 54.5218 324.689 55.5718C327.539 59.3918 333.679 60.6417 338.019 58.9517C340.279 58.0717 342.039 55.652 344.359 54.942C352.329 52.532 359.059 59.7415 356.309 67.5015C355.249 70.5015 351.449 73.5016 348.779 75.0816C333.759 83.9216 312.799 77.3913 305.689 61.5113C305.319 60.6813 305.519 59.5818 304.499 58.9918C303.609 59.6618 303.459 60.8711 302.979 61.8111C298.109 71.3811 289.469 77.4416 278.809 79.0416H220.609C212.749 78.2016 205.019 74.3912 199.809 68.3912C198.819 67.2512 198.139 65.002 196.489 65.192C196.439 65.962 196.569 66.8018 196.489 67.5718C196.229 70.0118 194.859 73.0311 193.179 74.8111C192.899 75.1111 190.309 77.3312 190.119 77.3912C187.069 78.4012 184.529 79.4916 181.119 78.7916C179.969 78.5516 178.849 77.9511 177.789 77.5611C175.789 76.8311 175.649 77.6017 173.959 77.9517C170.459 78.6917 166.179 79.5116 162.639 78.8316C161.799 78.6716 161.429 78.4911 160.389 78.3511C154.639 77.5411 148.809 74.0711 144.709 70.0611C142.899 69.5711 143.439 70.1514 142.889 71.1314C140.979 74.5314 137.429 76.6614 133.609 77.1714C122.439 76.6614 110.549 77.922 99.4594 77.192C97.0594 77.032 94.9194 76.3913 92.9494 75.0113C92.2394 74.5213 91.9694 73.6017 90.9694 73.6617C90.0894 73.7117 90.4394 74.132 90.1694 74.442C88.1994 76.672 85.3294 78.2614 82.4594 78.8414C76.8394 79.9814 70.7594 76.2915 68.3994 71.2115C68.2094 70.8015 67.7594 68.3211 66.9494 68.5211C65.3194 70.7311 63.2894 72.8219 61.0294 74.4019C53.4394 79.6819 43.9094 80.4615 35.7194 76.2115C34.0994 76.7415 32.4694 77.7219 30.8194 78.1519C24.3194 79.8619 17.4194 78.8511 11.6894 75.3111C-4.35056 65.3911 1.10943 46.0512 0.179431 30.1812C0.969431 24.7212 4.18944 20.0711 9.66944 18.5611C17.0294 16.5411 23.9494 20.7719 25.8194 28.1119C26.1694 29.8619 25.7494 32.4816 26.0494 34.0816C26.4094 35.9616 28.8294 33.402 29.6594 32.942C33.5394 30.802 38.0694 30.7819 41.9694 32.8619C42.6194 33.2019 44.5694 34.8818 44.9594 34.7818C45.9394 34.5418 45.3094 33.0512 45.2994 32.4312C45.0994 20.7012 58.0894 13.2315 67.0594 21.2515C67.7394 21.8615 69.3594 24.561 70.2694 23.231C70.9094 22.291 69.4894 21.5614 69.1894 21.0914C65.2894 15.0214 66.5394 7.51149 72.1294 2.96149C83.1294 -6.00851 98.8794 7.0818 92.2794 19.7818C91.4294 21.4118 89.2594 22.571 91.4094 24.231C91.9894 24.341 93.4194 22.8713 93.9794 22.5113C95.4494 21.5713 97.1394 21.151 98.8294 20.731H132.799C135.259 21.351 137.759 22.1917 139.659 23.9117ZM79.8294 5.89118C73.4794 6.80118 70.2994 13.5313 74.7094 18.5513C78.3794 22.7313 85.4094 21.5714 87.4394 16.3814C88.2394 14.3314 88.2094 12.5017 87.3794 10.4517C86.2894 7.77172 82.7094 5.47118 79.8294 5.89118ZM206.209 29.942V9.88141C206.209 9.51141 205.009 7.54133 204.609 7.30133C201.679 5.50133 198.629 7.1818 198.369 10.5318C198.779 23.4318 197.739 36.7611 198.329 49.6011C198.919 62.4411 208.699 71.8818 221.009 73.2818C240.399 73.1218 259.839 73.5613 279.199 73.0513C308.799 67.4413 306.309 25.1316 275.489 23.8316C258.609 23.1216 241.239 24.3916 224.319 23.8316C221.209 24.0716 218.549 24.021 215.529 24.981C212.269 26.001 209.149 27.8914 206.629 30.1714L206.209 29.9517V29.942ZM316.799 31.9019H339.479C340.309 31.9019 341.989 29.2218 341.999 28.3218C342.009 27.3118 341.049 25.5418 340.189 24.9918C340.039 24.9018 338.739 24.2515 338.649 24.2515H317.109L316.799 23.942V12.7711C316.799 12.6811 316.059 11.3219 315.939 11.1519C314.219 8.74192 309.169 9.72102 308.929 12.981V52.2711C310.869 70.8011 336.069 80.4514 349.529 67.3814C351.419 65.5514 351.879 62.6311 349.629 60.8511C348.839 60.2311 346.639 60.2912 345.719 60.6812C344.889 61.0312 343.459 62.6315 342.449 63.2115C334.179 67.9915 322.579 65.0619 318.289 56.3619C318.059 55.9019 316.789 51.9319 316.789 51.6519V31.9019H316.799ZM22.3694 58.1011C21.8994 57.8311 20.5194 55.9814 20.4394 55.3814C20.1794 47.8714 20.8194 40.0919 20.4594 32.6119C20.2994 29.3919 20.0394 26.8618 17.1094 24.9918C12.3294 21.9318 6.66944 25.1516 5.93944 30.5416C7.26944 43.9716 1.14944 62.8219 15.4994 70.8619C21.2994 74.1119 27.2994 73.892 33.1394 70.942C33.8494 70.582 34.9394 69.5318 35.6694 69.5318C36.3394 69.5318 38.7494 71.3613 39.6594 71.7613C50.3494 76.4713 63.1394 69.2511 65.3894 58.0611V29.1011C63.6894 22.4811 54.2694 22.0414 51.8194 28.3814C51.1794 30.0514 51.5194 30.2818 51.5194 31.7818C51.5194 39.3718 51.4894 46.9613 51.5194 54.5513C51.0894 55.9913 50.5794 57.0814 49.2194 57.8414C46.8194 59.1814 43.2694 58.1915 43.0094 55.1715C42.5194 49.5315 45.1994 40.2016 38.4694 37.5816C34.5794 36.0616 30.0094 38.5012 28.8294 42.4312C28.0294 45.0912 29.1294 51.7115 28.7394 54.9615C28.6094 56.0015 27.1194 58.0018 26.0994 58.3218C25.1994 58.6018 23.1894 58.5711 22.3794 58.1011H22.3694ZM84.5694 25.1617C79.9894 21.6917 73.1294 25.492 73.0494 31.192C72.8594 43.342 73.5694 55.5818 73.2694 67.7818C75.9294 75.4318 86.0594 74.8013 87.5494 66.7613C86.9294 55.1513 88.3794 42.692 87.5494 31.192C87.3894 28.932 86.4294 26.5714 84.5794 25.1714L84.5694 25.1617ZM154.099 70.0914C161.059 74.0614 168.909 74.0111 176.189 71.1011C176.669 70.9111 176.989 70.4414 177.539 70.3814C179.709 72.3214 182.119 73.7813 185.139 73.0113C188.109 72.2513 190.569 69.6611 190.899 66.5611C191.639 59.5711 190.589 50.9118 190.469 43.8218C183.799 14.3018 140.549 19.1711 141.609 49.8111C141.689 51.9911 141.749 53.9818 142.809 55.7418C142.949 55.9818 142.809 56.6917 142.949 57.1617C144.339 61.8917 149.859 67.6811 154.109 70.1011L154.099 70.0914ZM136.709 28.5113C135.389 26.8413 133.889 26.2012 131.769 25.8912H99.4494C92.3894 26.9112 91.4594 36.5916 98.0594 39.0816C99.3894 39.5816 99.8494 39.0816 100.899 39.1216C104.829 39.2416 108.779 39.3911 112.709 39.3511C113.289 39.3511 116.139 38.6219 116.119 39.6519C116.119 39.7419 115.589 39.9419 115.379 40.1519C108.479 47.4619 101.189 54.3911 94.1894 61.6011C91.4694 65.9811 94.2894 71.3911 99.2294 72.0211C110.139 71.3011 122.229 72.9511 132.999 72.0211C138.519 71.5411 141.249 64.4715 137.169 60.5015C135.449 58.8215 132.669 58.8611 130.309 58.7711C125.249 58.5711 120.129 58.8914 115.079 58.8814C115.169 58.5614 115.479 58.0811 115.699 57.8511C118.749 54.7011 122.049 51.7018 125.149 48.5718C128.579 45.1118 133.169 40.9914 136.199 37.3814C138.489 34.6514 138.949 31.3713 136.689 28.5113H136.709Z" fill="black"/>
<path d="M234.73 61.0015C225.65 69.1915 211.17 65.7114 207.09 54.0914C201.84 39.1414 218.22 26.2811 231.87 34.1011C241.25 39.4711 242.77 53.7513 234.73 61.0113V61.0015ZM231.57 55.7818C236.46 49.9818 234.35 41.3717 227.39 38.3717C218.34 34.4717 208.7 44.0112 212.8 53.1412C215.23 58.5612 220.34 60.1612 225.97 59.3912C227.9 59.1312 230.34 57.2311 231.56 55.7711L231.57 55.7818Z" fill="black"/>
<path d="M288.77 37.9712C294.28 44.9912 293.42 55.0616 286.88 61.0816C274.62 72.3516 255.26 60.731 259.08 44.481C262.2 31.181 280.36 27.2512 288.77 37.9712ZM274.31 37.5513C266.87 38.4413 262.1 46.4911 265.41 53.3511C269.04 60.8811 279.74 62.0413 284.59 55.0513C289.98 47.2713 283.68 36.4313 274.32 37.5513H274.31Z" fill="black"/>
<path d="M173.56 55.5516C169.52 59.8516 163.13 59.8914 158.86 55.8114C152.57 49.8014 156.67 38.8414 165.31 38.3114C174.78 37.7314 180.09 48.6018 173.56 55.5418V55.5516ZM163.47 52.0418C164.02 52.4418 164.85 52.9622 165.57 53.1522C167.07 53.5322 169.73 51.8217 170.35 50.3817C172.19 46.1117 166.92 42.0222 163.24 45.1522C160.81 47.2222 160.88 50.1616 163.47 52.0516V52.0418Z" fill="black"/>
</svg>
